<svg xmlns="http://www.w3.org/2000/svg" viewBox="0 0 231.95 139.75"><title>Asset 3</title><g id="Layer_2" data-name="Layer 2"><g id="Layer_1-2" data-name="Layer 1"><path d="M218.84,0H13.1A13.12,13.12,0,0,0,0,13.1V126.65a13.12,13.12,0,0,0,13.1,13.1H218.84a13.12,13.12,0,0,0,13.1-13.1V13.1A13.12,13.12,0,0,0,218.84,0Zm5.34,13.1V126.65a5.34,5.34,0,0,1-5.34,5.34H13.1a5.34,5.34,0,0,1-5.34-5.34V13.1A5.34,5.34,0,0,1,13.1,7.76H218.84A5.34,5.34,0,0,1,224.18,13.1Z"/><polygon points="206.4 22.32 116.65 79.43 25.46 23.34 21.83 30.12 116.71 88.48 210.12 29.04 206.4 22.32"/><polygon points="154.82 77.97 151.63 84.03 206.93 117.43 210.12 111.37 154.82 77.97"/><polygon points="21.83 111.37 25.02 117.43 80.31 84.03 77.12 77.97 21.83 111.37"/></g></g></svg>