<svg xmlns="http://www.w3.org/2000/svg" viewBox="0 0 204.38 161.55"><title>Asset 4</title><g id="Layer_2" data-name="Layer 2"><g id="Layer_1-2" data-name="Layer 1"><path d="M104.33,0C49.17,0,4.28,36,4.28,80.21c0,18.07,7.39,35.2,21,49.21l-23.39,25-.72.77-.18.19-.07.09a3.66,3.66,0,0,0-.2,4.62c1,1.3,2.79,1.6,4.49,1.35h0l.07,0c.22,0,.43-.08.64-.13h0l.14,0h0l.13,0L55.08,150a119.18,119.18,0,0,0,49.25,10.37c55.17,0,100.05-36,100.05-80.21S159.5,0,104.33,0Zm0,153.56a112.28,112.28,0,0,1-42.7-8.23q-3.43-1.41-6.71-3.06l-10.25,2.35-29.13,6.69L31,134.78l4.83-5.17q-3-2.61-5.67-5.4c-12-12.63-18.53-27.93-18.53-44,0-40.44,41.59-73.35,92.71-73.35S197,39.77,197,80.21,155.45,153.56,104.33,153.56Z"/></g></g></svg>