<svg xmlns="http://www.w3.org/2000/svg" viewBox="0 0 258.66 168.17"><title>Asset 21</title><g id="Layer_2" data-name="Layer 2"><g id="Layer_1-2" data-name="Layer 1"><path d="M258.51,70c-.09-.45-.17-.9-.25-1.35a24.48,24.48,0,0,0-.79-3.43,20.79,20.79,0,0,0-19.61-14.5q-50.07,0-100.15,0a19.25,19.25,0,0,0-10.8,3.18,21.49,21.49,0,0,0-10,18.63c-.05,14,0,28.2,0,42v8a24.84,24.84,0,0,0,.31,3.76,21.15,21.15,0,0,0,21,18.08h.16c10.74-.08,21.66-.06,32.22,0h13.7q4.33,5.15,8.68,10.29l4.06,4.8q3.06,3.62,6.1,7.24a4.17,4.17,0,0,0,3.22,1.58,4.29,4.29,0,0,0,4.27-4.5V144.26h5.06c7.17,0,14.58,0,21.88,0a19.48,19.48,0,0,0,4.75-.52c8-2,13.26-7.21,15.61-15.45a20.69,20.69,0,0,0,.54-2.77c.05-.35.1-.7.16-1.05l0-.23V70.75Zm-5.26,53.73c-.05.32-.1.64-.15,1a16.42,16.42,0,0,1-.39,2.07c-1.81,6.34-5.65,10.16-11.73,11.69a14.31,14.31,0,0,1-3.45.35c-7.28,0-14.69,0-21.85,0H205.2v21.81l-4.06-4.8-4.05-4.8q-4.61-5.45-9.2-10.91a3.64,3.64,0,0,0-2.93-1.3H170.58c-10.57,0-21.51,0-32.27,0h-.12a15.8,15.8,0,0,1-15.63-13.5,19.44,19.44,0,0,1-.24-2.94v-8c0-13.74,0-28,0-41.93a15.9,15.9,0,0,1,7.56-14.13,13.93,13.93,0,0,1,7.82-2.28q50.07,0,100.15,0a15.39,15.39,0,0,1,14.48,10.79,20.1,20.1,0,0,1,.6,2.69c.09.5.18,1,.29,1.51l0,.16Z"/><path d="M106.4,60.7a20.2,20.2,0,0,1,.54-4.71,17.75,17.75,0,0,1,17.19-13.84h.12c10,.07,20.18.05,30,0h16.18V39q0-1.51,0-3c0-2.45,0-5,0-7.49a32.78,32.78,0,0,0-.46-5A28,28,0,0,0,142.17,0c-10.32.12-20.83.09-31,.06L97.69,0H27.89A25.1,25.1,0,0,0,16.2,2.63C5.78,8,.21,16.95.1,28.64,0,41.91,0,55.39,0,68.43q0,8,0,16A29.51,29.51,0,0,0,1.86,94.62,27.79,27.79,0,0,0,28.33,113.1c4-.08,8.13-.06,12.11,0h3.49v27.61c0,.23,0,.46,0,.69a4.9,4.9,0,0,0,3.36,4.28,4.78,4.78,0,0,0,1.52.26,4.62,4.62,0,0,0,3.56-1.76l2.49-2.94q11.88-14.06,23.75-28.13h28.44l-.24-2.93c0-.59-.11-1.16-.17-1.74-.12-1.13-.23-2.2-.23-3.22,0-11.36,0-22.91,0-34.08Zm-4.72-6a25.62,25.62,0,0,0-.69,6V71.12c0,11.17,0,22.73,0,34.09,0,.84.06,1.66.13,2.46H77.94a3.8,3.8,0,0,0-3,1.41Q62.83,123.4,50.73,137.71l-1.4,1.65v-31.7h-3.4l-5.48,0-5.49,0c-2.24,0-4.51,0-6.75.06A22.37,22.37,0,0,1,6.94,92.76a24.11,24.11,0,0,1-1.48-8.3q0-8,0-16c0-13-.06-26.49.07-39.73C5.6,19,10,11.86,18.67,7.45a19.85,19.85,0,0,1,9.22-2h69.8l13.48,0c10.18,0,20.7.05,31.06-.06a22.56,22.56,0,0,1,22.41,19,27.33,27.33,0,0,1,.38,4.17c0,2.45,0,5,0,7.38v.81H154.26c-9.83,0-20,0-30,0h-.16A23.14,23.14,0,0,0,101.68,54.73Z"/></g></g></svg>