<svg xmlns="http://www.w3.org/2000/svg" viewBox="0 0 134.94 124.55"><title>Asset 22</title><g id="Layer_2" data-name="Layer 2"><g id="Layer_1-2" data-name="Layer 1"><path d="M133.5,9.81H80.26a17.8,17.8,0,0,0-31.81,0h-47A1.45,1.45,0,0,0,0,11.26V24.39a1.45,1.45,0,0,0,1.44,1.45h47a17.8,17.8,0,0,0,31.81,0H133.5a1.45,1.45,0,0,0,1.44-1.45V11.26A1.45,1.45,0,0,0,133.5,9.81Z"/><path d="M133.5,54.26H110.21a17.8,17.8,0,0,0-31.81,0h-77A1.45,1.45,0,0,0,0,55.71V68.84a1.45,1.45,0,0,0,1.44,1.45h77a17.8,17.8,0,0,0,31.81,0H133.5a1.45,1.45,0,0,0,1.44-1.45V55.71A1.45,1.45,0,0,0,133.5,54.26Z"/><path d="M133.5,98.71H53.17a17.8,17.8,0,0,0-31.81,0H1.44A1.45,1.45,0,0,0,0,100.16v13.13a1.45,1.45,0,0,0,1.44,1.45H21.36a17.8,17.8,0,0,0,31.81,0H133.5a1.45,1.45,0,0,0,1.44-1.45V100.16A1.45,1.45,0,0,0,133.5,98.71Z"/></g></g></svg>