<?xml version="1.0" encoding="UTF-8" standalone="no"?>
<svg width="26" height="24" viewBox="0 0 26 24" version="1.1" xmlns="http://www.w3.org/2000/svg">
 <g id="Symbols" fill="none" fill-rule="evenodd">
  <g id="big-heart" fill="#6B6866">
   <g id="Group-3">
    <path d="M25.0246289,7.04758422 C24.3067814,3.37289702 21.739933,1.00427334 18.4334841,1.00427334 C16.5844831,1.00427334 14.5832114,1.77905679 12.6254456,3.240077 C10.6459268,1.73478345 8.64465514,0.96 6.77390117,0.96 C3.46745228,0.96 0.878850855,3.35076035 0.182756353,7.06972089 C-0.8613854,12.5817517 2.48856939,19.9089894 12.2991513,23.89359 C12.407916,23.9378633 12.5166808,23.96 12.6254456,23.96 C12.7342103,23.96 12.8429751,23.9378633 12.9517399,23.89359 C22.7405688,19.8204427 26.0687706,12.5153417 25.0246289,7.04758422 L25.0246289,7.04758422 Z M12.6254456,22.0783831 C4.01127611,18.4479692 1.03112153,12.1168816 1.92299261,7.40177093 C2.44506348,4.59041386 4.35932336,2.75307026 6.77390117,2.75307026 C8.40537266,2.75307026 10.2326207,3.54999038 12.0598688,5.0774206 C12.3861631,5.34306064 12.8429751,5.34306064 13.1692694,5.0774206 C14.9965175,3.59426372 16.8020126,2.81948027 18.4334841,2.81948027 C20.8480619,2.81948027 22.7405688,4.61255053 23.2843926,7.40177093 C24.1762637,12.0726083 21.2178621,18.3815592 12.6254456,22.0783831 L12.6254456,22.0783831 Z" id="Shape"/>
   </g>
  </g>
 </g>
</svg>
