<svg xmlns="http://www.w3.org/2000/svg" xmlns:xlink="http://www.w3.org/1999/xlink" width="0" height="0" style="position:absolute">
	
		<symbol id="Asset 10" viewBox="0 0 117.58 117.58">
			<title>Asset 10</title><g data-name="Layer 1"><path d="M0 0h52.18v52.18H0zM65.4 0h52.18v52.18H65.4zM0 65.4h52.18v52.18H0zM65.4 65.4h52.18v52.18H65.4z"></path></g>
		</symbol>
	
		<symbol id="Asset 13" viewBox="0 0 65.82 117.58">
			<title>Asset 13</title><path d="M0 58.76l.05.05v.01L7 65.77l51.82 51.81 6.95-6.95-51.82-51.82L65.82 6.95 58.87 0 6.99 51.88 0 58.76z" data-name="Layer 1"></path>
		</symbol>
	
		<symbol id="Asset 14" viewBox="0 0 65.82 117.58">
			<title>Asset 14</title><path d="M65.82 58.82l-.05-.05v-.01l-6.95-6.95-.01.01L7 0 .05 6.95l51.81 51.82L0 110.63l6.95 6.95 51.88-51.87 6.99-6.89z" data-name="Layer 1"></path>
		</symbol>
	
		<symbol id="Asset 15" viewBox="0 0 117.58 65.82">
			<title>Asset 15</title><path d="M58.76 65.82l.05-.05h.01l6.95-6.95v-.01L117.58 7 110.63.05 58.81 51.86 6.95 0 0 6.95l51.88 51.88 6.88 6.99z" data-name="Layer 1"></path>
		</symbol>
	
		<symbol id="Asset 17" viewBox="0 0 137.09 19.47">
			<title>Asset 17</title><path d="M137.09 0v19.47H0V0z" data-name="Layer 1"></path>
		</symbol>
	
		<symbol id="Asset 18" viewBox="0 0 137.09 137.09">
			<title>Asset 18</title><path d="M137.09 58.81H78.28V0H58.81v58.81H0v19.47h58.81v58.81h19.47V78.28h58.81V58.81z" data-name="Layer 1"></path>
		</symbol>
	
		<symbol id="Asset 21" viewBox="0 0 258.66 168.17">
			<title>Asset 21</title><g data-name="Layer 1"><path d="M258.51 70c-.09-.45-.17-.9-.25-1.35a24.48 24.48 0 0 0-.79-3.43 20.79 20.79 0 0 0-19.61-14.5H137.71a19.25 19.25 0 0 0-10.8 3.18 21.49 21.49 0 0 0-10 18.63c-.05 14 0 28.2 0 42v8a24.84 24.84 0 0 0 .31 3.76 21.15 21.15 0 0 0 21 18.08h.16c10.74-.08 21.66-.06 32.22 0h13.7q4.33 5.15 8.68 10.29l4.06 4.8q3.06 3.62 6.1 7.24a4.17 4.17 0 0 0 3.22 1.58 4.29 4.29 0 0 0 4.27-4.5v-19.52H237.57a19.48 19.48 0 0 0 4.75-.52c8-2 13.26-7.21 15.61-15.45a20.69 20.69 0 0 0 .54-2.77c.05-.35.1-.7.16-1.05V70.75zm-5.26 53.73c-.05.32-.1.64-.15 1a16.42 16.42 0 0 1-.39 2.07c-1.81 6.34-5.65 10.16-11.73 11.69a14.31 14.31 0 0 1-3.45.35H205.2v21.81l-4.06-4.8-4.05-4.8q-4.61-5.45-9.2-10.91a3.64 3.64 0 0 0-2.93-1.3h-46.77a15.8 15.8 0 0 1-15.63-13.5 19.44 19.44 0 0 1-.24-2.94v-8-41.93a15.9 15.9 0 0 1 7.56-14.13 13.93 13.93 0 0 1 7.82-2.28h100.15a15.39 15.39 0 0 1 14.48 10.79 20.1 20.1 0 0 1 .6 2.69c.09.5.18 1 .29 1.51v.16z"></path><path d="M106.4 60.7a20.2 20.2 0 0 1 .54-4.71 17.75 17.75 0 0 1 17.19-13.84h.12c10 .07 20.18.05 30 0h16.18V39v-3-7.49a32.78 32.78 0 0 0-.46-5A28 28 0 0 0 142.17 0c-10.32.12-20.83.09-31 .06L97.69 0h-69.8A25.1 25.1 0 0 0 16.2 2.63C5.78 8 .21 16.95.1 28.64 0 41.91 0 55.39 0 68.43v16a29.51 29.51 0 0 0 1.86 10.19 27.79 27.79 0 0 0 26.47 18.48c4-.08 8.13-.06 12.11 0h3.49v28.3a4.9 4.9 0 0 0 3.36 4.28 4.78 4.78 0 0 0 1.52.26 4.62 4.62 0 0 0 3.56-1.76l2.49-2.94q11.88-14.06 23.75-28.13h28.44l-.24-2.93c0-.59-.11-1.16-.17-1.74-.12-1.13-.23-2.2-.23-3.22V71.14zm-4.72-6a25.62 25.62 0 0 0-.69 6V105.21c0 .84.06 1.66.13 2.46H77.94a3.8 3.8 0 0 0-3 1.41l-24.21 28.63-1.4 1.65v-31.7H34.96c-2.24 0-4.51 0-6.75.06A22.37 22.37 0 0 1 6.94 92.76a24.11 24.11 0 0 1-1.48-8.3v-16c0-13-.06-26.49.07-39.73C5.6 19 10 11.86 18.67 7.45a19.85 19.85 0 0 1 9.22-2h83.28c10.18 0 20.7.05 31.06-.06a22.56 22.56 0 0 1 22.41 19 27.33 27.33 0 0 1 .38 4.17v8.19H124.1a23.14 23.14 0 0 0-22.42 17.98z"></path></g>
		</symbol>
	
		<symbol id="Asset 22" viewBox="0 0 134.94 124.55">
			<title>Asset 22</title><g data-name="Layer 1"><path d="M133.5 9.81H80.26a17.8 17.8 0 0 0-31.81 0h-47A1.45 1.45 0 0 0 0 11.26v13.13a1.45 1.45 0 0 0 1.44 1.45h47a17.8 17.8 0 0 0 31.81 0h53.25a1.45 1.45 0 0 0 1.44-1.45V11.26a1.45 1.45 0 0 0-1.44-1.45zM133.5 54.26h-23.29a17.8 17.8 0 0 0-31.81 0h-77A1.45 1.45 0 0 0 0 55.71v13.13a1.45 1.45 0 0 0 1.44 1.45h77a17.8 17.8 0 0 0 31.81 0h23.25a1.45 1.45 0 0 0 1.44-1.45V55.71a1.45 1.45 0 0 0-1.44-1.45zM133.5 98.71H53.17a17.8 17.8 0 0 0-31.81 0H1.44A1.45 1.45 0 0 0 0 100.16v13.13a1.45 1.45 0 0 0 1.44 1.45h19.92a17.8 17.8 0 0 0 31.81 0h80.33a1.45 1.45 0 0 0 1.44-1.45v-13.13a1.45 1.45 0 0 0-1.44-1.45z"></path></g>
		</symbol>
	
		<symbol id="Asset 6" viewBox="0 0 154.9 154.9">
			<title>Asset 6</title><path d="M105.33 0v12.39h28.41L90.53 55.61a55.91 55.91 0 1 0 8.76 8.76l43.22-43.22v28.42h12.39V0zM55.76 142.51a43.37 43.37 0 1 1 43.38-43.37 43.42 43.42 0 0 1-43.38 43.37z" data-name="Layer 1"></path>
		</symbol>
	
		<symbol id="Asset 7" viewBox="0 0 111.53 173.49">
			<title>Asset 7</title><path d="M111.53 55.76a55.76 55.76 0 1 0-62 55.4v31.35H31v12.39h18.57v18.59H62V154.9h18.55v-12.39H62v-31.35a55.83 55.83 0 0 0 49.53-55.4zm-99.14 0a43.37 43.37 0 1 1 43.37 43.38 43.42 43.42 0 0 1-43.37-43.38z" data-name="Layer 1"></path>
		</symbol>
	
		<symbol id="Asset 8" viewBox="0 0 111.53 196.46">
			<title>Asset 8</title><path d="M62 85.29v-35l20.4 20.4L91.13 62l-26.6-26.6 26.6-26.6L82.36 0l-26.6 26.6L29.16 0 20.4 8.76 47 35.36 20.4 62l8.76 8.76 20.4-20.4v35a55.76 55.76 0 1 0 12.39 0zm-6.2 98.77a43.37 43.37 0 1 1 43.37-43.37 43.42 43.42 0 0 1-43.41 43.38z" data-name="Layer 1"></path>
		</symbol>
	
		<symbol id="Asset 9" viewBox="0 0 103.69 128.76">
			<title>Asset 9</title><g data-name="Layer 1"><path d="M51.84 0L0 56.95h103.69zM51.84 128.76l51.84-56.95H0z"></path></g>
		</symbol>
	
		<symbol id="brevkasse" viewBox="0 0 231.95 139.75">
			<title>Asset 3</title><g data-name="Layer 1"><path d="M218.84 0H13.1A13.12 13.12 0 0 0 0 13.1v113.55a13.12 13.12 0 0 0 13.1 13.1h205.74a13.12 13.12 0 0 0 13.1-13.1V13.1A13.12 13.12 0 0 0 218.84 0zm5.34 13.1v113.55a5.34 5.34 0 0 1-5.34 5.34H13.1a5.34 5.34 0 0 1-5.34-5.34V13.1a5.34 5.34 0 0 1 5.34-5.34h205.74a5.34 5.34 0 0 1 5.34 5.34z"></path><path d="M206.4 22.32l-89.75 57.11-91.19-56.09-3.63 6.78 94.88 58.36 93.41-59.44-3.72-6.72zM154.82 77.97l-3.19 6.06 55.3 33.4 3.19-6.06-55.3-33.4zM21.83 111.37l3.19 6.06 55.29-33.4-3.19-6.06-55.29 33.4z"></path></g>
		</symbol>
	
		<symbol id="chat" viewBox="0 0 204.38 161.55">
			<title>Asset 4</title><path d="M104.33 0C49.17 0 4.28 36 4.28 80.21c0 18.07 7.39 35.2 21 49.21l-23.39 25-.72.77-.18.19-.07.09a3.66 3.66 0 0 0-.2 4.62c1 1.3 2.79 1.6 4.49 1.35h.07c.22 0 .43-.08.64-.13h.27L55.08 150a119.18 119.18 0 0 0 49.25 10.37c55.17 0 100.05-36 100.05-80.21S159.5 0 104.33 0zm0 153.56a112.28 112.28 0 0 1-42.7-8.23q-3.43-1.41-6.71-3.06l-10.25 2.35-29.13 6.69L31 134.78l4.83-5.17q-3-2.61-5.67-5.4c-12-12.63-18.53-27.93-18.53-44 0-40.44 41.59-73.35 92.71-73.35S197 39.77 197 80.21s-41.55 73.35-92.67 73.35z" data-name="Layer 1"></path>
		</symbol>
	
		<symbol id="comment" viewBox="0 0 156.78 134.14">
			<title>Asset 12</title><path d="M78.39 134.14a88.73 88.73 0 0 1-36.1-7.52q-2.9-1.29-5.67-2.8L28 126l-24.68 6.09L16.38 117l4.09-4.73q-2.55-2.39-4.79-4.94C5.51 95.75 0 81.76 0 67.07 0 30.09 35.17 0 78.39 0s78.39 30.09 78.39 67.07-35.16 67.07-78.39 67.07z" data-name="Layer 1"></path>
		</symbol>
	
		<symbol id="facebook" viewBox="0 0 160.26 160.26">
			<title>Asset 20</title><path d="M80.13 0a80.13 80.13 0 1 0 80.13 80.13A80.13 80.13 0 0 0 80.13 0zm25.63 47.33H94.4c-4.88 0-7.7 2.79-7.7 8.54V67h17.81L102 84.6H86.7v45.7H68.36V84.6H53V67h15.36V53.59c0-17.28 12.05-23.22 21.32-23.22h16.09z" data-name="Layer 1"></path>
		</symbol>
	
		<symbol id="heart" viewBox="0 0 157.29 135.72">
			<title>Asset 11</title><path d="M78.65 135.72c-6.62-7.14-12.87-13.9-19.15-20.63C44.5 99 22.93 83 8 66.85c-14.27-15.39-7.72-40 6.47-55.31S51.73-3.89 66 11.36c4 4.29 7.68 8.94 12.1 14.12 4.67-5 8.5-9 12.32-13.1 15-16.07 37.83-16.52 52.4-1s20.86 40.28 5.65 56.62c-20.89 22.34-48.31 44.69-69.82 67.72z" data-name="Layer 1"></path>
		</symbol>
	
		<symbol id="instagram" viewBox="0 0 150.47 150.47">
			<title>Asset 19</title><g data-name="3"><path d="M107.65 150.47H42.82A42.88 42.88 0 0 1 0 107.65V42.82A42.88 42.88 0 0 1 42.82 0h64.83a42.88 42.88 0 0 1 42.82 42.82v64.83a42.88 42.88 0 0 1-42.82 42.82zM42.82 12.9A29.94 29.94 0 0 0 12.9 42.82v64.83a29.94 29.94 0 0 0 29.92 29.92h64.83a29.94 29.94 0 0 0 29.92-29.92V42.82a29.94 29.94 0 0 0-29.92-29.92z"></path><path d="M75.24 113.76a38.52 38.52 0 1 1 38.52-38.52 38.57 38.57 0 0 1-38.52 38.52zm0-64.15a25.62 25.62 0 1 0 25.62 25.62 25.63 25.63 0 0 0-25.62-25.62z"></path><circle cx="115.44" cy="34.52" r="9.24"></circle></g>
		</symbol>
	
		<symbol id="logo" viewBox="0 0 362.31 87.49">
			<defs><style>.cls-1{fill:#8ec6e9}.cls-2{fill:#1e9ecb}</style></defs><title>Asset 1</title><g id="Layer_2" data-name="Layer 2"><g id="Layer_1-2" data-name="Layer 1"><g id="_3gYYZc" data-name="3gYYZc"><path d="M47.34 0C51.18 3.9 55 7.81 58.88 11.7c5.92 6 11.87 11.89 17.76 17.79A98.79 98.79 0 0 1 83 21.86 42.43 42.43 0 0 1 105.56 10a57.31 57.31 0 0 1 11.2-1.31A47.76 47.76 0 0 1 142.11 16a43.71 43.71 0 0 1 11.27 10.11 2.22 2.22 0 0 0 1.55.65c3.37.06 6.74 0 10.12 0h84.2c4.25 0 8.24 1.11 11.39 4.23a33.18 33.18 0 0 1 2.12 2.59c.37-1.78.81-3.36 1-5s.77-2.28 2.55-2.28c26.58.06 53.16 0 79.74.1 3.71 0 7.5.26 10.8 2.55 4.85 3.37 5.89 7.9 5.3 12.86-.54 4.55-1.5 9-2.32 13.55-1 5.29-3.09 10-7.84 12.8a23.14 23.14 0 0 1-7.59 2.36 44 44 0 0 1-7.47.39c-4.35 0-8.5-.78-12-3.57-.74-.59-1.12-.53-1.87 0a16.9 16.9 0 0 1-9 3.23c-2.21.14-4.42.37-6.62.32-3.94-.1-7.87-.38-11.31-2.66-.12-.08-.33 0-.71 0 .38 2.32-1 2.39-2.83 2.39q-68.68-.06-137.36-.06a4.53 4.53 0 0 0-4 1.84A39.32 39.32 0 0 1 141 80.76a46.65 46.65 0 0 1-16.46 5.92 50.22 50.22 0 0 1-17-.15 47.51 47.51 0 0 1-18.84-7.6A38.24 38.24 0 0 1 73 57.49a1.11 1.11 0 0 0-.6-.68c0 .41-.08.81-.08 1.22v17.32c0 3.52.19 7 .35 10.57.05 1.21-.4 1.58-1.59 1.58H11.74a14 14 0 0 1-1.45-.16c.79-6.09 1.57-12 2.32-18 .48-3.79.86-7.59 1.4-11.37.25-1.74-.68-2.91-1.59-4.11Q6.28 45.6 0 37.39V37c1.08-.79 2.18-1.56 3.23-2.39 4.19-3.31 8.36-6.65 12.54-10l14-11.08C33.33 10.8 36.91 8 40.46 5.14c2.09-1.68 4.13-3.42 6.19-5.14zM45 15.5L13.75 40.23c1.41 1.89 2.79 3.63 4 5.46a1.44 1.44 0 0 0 2.13.54c1.75-.79 3.54-1.46 5.63-2.31L21.5 77.44h39v-33c1.79.66 3.48 1.32 5.2 1.88a1.77 1.77 0 0 0 1.48-.12c1.39-1.48 2.67-3.08 3.93-4.56zM145.41 32c-.51-.62-.88-1.12-1.3-1.56-13.18-14-37.79-14.79-51.87-1.62C81 39.38 80.81 55.11 90.81 65.72c12.27 13 34.08 14.22 48.13 4.3 2.16-1.53 4.07-3.42 6.26-5.28l-4.59-4a4.15 4.15 0 0 0-.44.27c-.13.11-.25.24-.36.36-7.37 7.74-16.26 9.87-26.28 6.58-11-3.6-17.27-14.66-14.52-25.23 2.19-8.43 7.84-13.68 16.08-16 8.67-2.42 16.5-.49 23.24 5.53 1 .93 1.93 2 3 3.12zm204.3 10.94h4.25a1.28 1.28 0 0 0 .92-.56 5 5 0 0 0-3.6-7.34 58.2 58.2 0 0 0-8.37-.29c-6.15.13-8.77 2.44-9.91 8.48-.91 4.83.66 6.9 5.54 7.23 2.17.15 4.34.21 6.5.38 2.38.19 3 1.07 2.58 3.37-.63 3.24-1.42 4-4.75 4.29a18.63 18.63 0 0 1-3.25.07c-4.25-.36-4.25-.38-4-4.66h-4.26a1.27 1.27 0 0 0-.93.52c-1.86 3.49 0 7.66 3.89 8.09a64.83 64.83 0 0 0 11.1 0c3.66-.24 5.86-2.52 6.86-6 .25-.88.5-1.76.67-2.65 1-5.25-.19-6.78-5.48-7.2-2.45-.2-4.89-.42-7.34-.65-1.58-.15-2.14-1-1.94-2.59.42-3.19 1.43-4.19 4.61-4.37 1-.06 2.06-.09 3.08-.08 3.81.02 3.94.16 3.83 3.96zm-65.42 19.7c1.37 0 2.46-.08 3.53 0 1.36.14 1.85-.36 2.12-1.73 1-5.27 2.2-10.5 3.32-15.75.71-3.33 1.41-6.67 2.16-10.26h-3.94a1.33 1.33 0 0 0-1.62 1.28c-.51 2.75-1.19 5.47-1.7 8.22-.24 1.33-.71 1.94-2.21 1.87-2.74-.14-5.49 0-8.23 0h-3l2.31-11.18h-5.23L266 62.62a29.77 29.77 0 0 1 3.55 0c1.4.18 1.89-.4 2.13-1.71.63-3.36 1.4-6.69 2.12-10.08h12.94zm25-27.7c-1.62 0-3-.07-4.44 0a1.56 1.56 0 0 0-1 1c-1.46 6.75-2.93 13.5-4.23 20.28-.65 3.41.86 5.69 4.35 6.1a58.72 58.72 0 0 0 10.75.18c4.55-.31 7.21-3 8.12-7.5.66-3.19 1.35-6.37 2-9.55l2.25-10.59a30.33 30.33 0 0 1-3.46 0c-1.44-.18-2 .39-2.24 1.78-1.19 6-2.5 12-3.75 17.93-.36 1.7-1.18 3.16-3 3.32a45.4 45.4 0 0 1-7.65.06c-1.76-.14-2.28-1.17-1.95-2.92.43-2.24.92-4.47 1.38-6.71 1-4.32 1.93-8.75 2.9-13.38zM200.14 48.29c.81-1.41 1.94-2.62 2.18-4a17.39 17.39 0 0 0-.14-5.76 4.11 4.11 0 0 0-4.26-3.53c-5.08-.11-10.16 0-15.24 0-.14 0-.29.15-.52.28v26.17c0 1.07.56 1.19 1.4 1.19h13.88a5.53 5.53 0 0 0 4.75-2.3c2.56-3.72 1.32-10.01-2.05-12.05zm36.21-13.22v25.3c0 2.49.42 2.76 3.09 1.9v-9.36c0-.49.58-1.37.9-1.38 3.48-.06 7-.11 10.44.1 2.28.14 3.26 1.4 3.4 3.75.1 1.65.09 3.31.11 5 0 2.51.21 2.66 3 2 0-2-.07-4 0-6.07.11-2.79-.29-5.22-4.13-6.06 3.49-.88 4.48-2.93 4.46-5.67 0-1.36 0-2.74-.1-4.09-.32-3.14-2.09-5.2-5.24-5.34-5.16-.25-10.41-.09-15.93-.09zM211 34.93a4.5 4.5 0 0 0-.22.86v25.55c0 1.29.71 1.31 1.65 1.31h14.23c2.21 0 2.41-.29 1.67-2.67h-12.97c-.47 0-1.34-.5-1.34-.78-.1-3.11-.06-6.23-.06-9.54H228V47h-13.92v-9.41h13.17c1 0 1.43-.3 1.44-1.36s-.49-1.34-1.46-1.33h-14.06zm-34.94.24c-2.29-.58-3.84-.31-4.91 1.82a72.49 72.49 0 0 1-3.87 6.27c-.93 1.46-1.89 2.9-3 4.57-2.43-3.83-4.68-7.39-6.94-10.95-1.45-2.28-1.55-2.31-4.6-1.69.32.57.6 1.12.92 1.63 2.67 4.26 5.4 8.48 8 12.78a6.85 6.85 0 0 1 .93 3.16c.12 3.23 0 6.47 0 9.78h3.11c0-2.08.16-4.08 0-6a13.52 13.52 0 0 1 2.85-9.86c2.7-3.68 4.96-7.56 7.51-11.51z"></path><path class="cls-1" d="M45 15.5l26.08 26.12c-1.26 1.48-2.53 3.07-3.93 4.56a1.77 1.77 0 0 1-1.48.12c-1.72-.56-3.41-1.22-5.2-1.88v33h-39l4.06-33.51c-2.09.85-3.89 1.52-5.63 2.31a1.44 1.44 0 0 1-2.13-.54c-1.25-1.83-2.63-3.57-4-5.46zM145.41 32l-4.14 3.37c-1-1.09-1.91-2.19-3-3.12-6.74-6-14.57-8-23.24-5.53-8.24 2.3-13.89 7.55-16.08 16-2.7 10.58 3.59 21.63 14.57 25.28 10 3.29 18.91 1.16 26.28-6.58.12-.12.23-.25.36-.36a4.15 4.15 0 0 1 .44-.27l4.59 4c-2.19 1.86-4.09 3.75-6.26 5.28-14 9.92-35.86 8.72-48.13-4.3-10-10.61-9.84-26.34 1.43-36.88 14.08-13.17 38.69-12.4 51.87 1.62.43.39.8.89 1.31 1.49zM349.71 42.94c.1-3.79 0-3.92-3.8-4-1 0-2.06 0-3.08.08-3.18.18-4.19 1.17-4.61 4.37-.2 1.54.36 2.44 1.94 2.59 2.45.23 4.89.45 7.34.65 5.29.43 6.47 2 5.48 7.2-.17.89-.42 1.78-.67 2.65-1 3.47-3.2 5.76-6.86 6a64.83 64.83 0 0 1-11.1 0c-3.93-.42-5.75-4.59-3.89-8.09a1.27 1.27 0 0 1 .93-.52c1.42-.06 2.83 0 4.26 0-.27 4.28-.27 4.31 4 4.66a18.63 18.63 0 0 0 3.25-.07c3.33-.31 4.12-1 4.75-4.29.45-2.3-.19-3.18-2.58-3.37-2.16-.17-4.33-.24-6.5-.38-4.88-.33-6.46-2.39-5.54-7.23 1.14-6 3.76-8.35 9.91-8.48a58.2 58.2 0 0 1 8.37.29 5 5 0 0 1 3.6 7.34 1.28 1.28 0 0 1-.92.56c-1.44.1-2.86.04-4.28.04zM284.29 62.64l2.43-11.78h-12.94c-.72 3.39-1.49 6.73-2.12 10.08-.25 1.3-.73 1.89-2.13 1.71a29.77 29.77 0 0 0-3.55 0l5.83-27.56h5.28l-2.31 11.18h3c2.74 0 5.49-.1 8.23 0 1.5.08 2-.54 2.21-1.87.5-2.75 1.18-5.47 1.7-8.22a1.33 1.33 0 0 1 1.62-1.28c1.24.06 2.49 0 3.94 0-.76 3.59-1.45 6.92-2.16 10.26-1.12 5.25-2.3 10.48-3.32 15.75-.26 1.36-.76 1.86-2.12 1.73-1.13-.08-2.21 0-3.59 0zM309.32 34.94c-1 4.63-1.9 9-2.83 13.43-.47 2.23-1 4.47-1.38 6.71-.34 1.75.18 2.78 1.95 2.92a45.4 45.4 0 0 0 7.65-.06c1.8-.16 2.63-1.62 3-3.32 1.25-6 2.57-11.94 3.75-17.93.28-1.39.8-2 2.24-1.78a30.33 30.33 0 0 0 3.46 0l-2.26 10.61c-.68 3.18-1.37 6.36-2 9.55-.92 4.45-3.58 7.18-8.12 7.5a58.72 58.72 0 0 1-10.78-.18c-3.48-.4-5-2.69-4.35-6.1 1.3-6.78 2.77-13.53 4.23-20.28a1.56 1.56 0 0 1 1-1c1.41-.14 2.83-.07 4.44-.07zM200.14 48.29c3.36 2 4.61 8.33 2 12a5.53 5.53 0 0 1-4.75 2.3c-4.63.06-9.25 0-13.88 0-.84 0-1.4-.12-1.4-1.19V35.23c.23-.13.38-.28.52-.28 5.08 0 10.16-.08 15.24 0a4.11 4.11 0 0 1 4.26 3.52 17.39 17.39 0 0 1 .14 5.76c-.19 1.44-1.27 2.64-2.13 4.06zm-14.87 11.44a2.38 2.38 0 0 0 .52.2h9.06c4.58 0 5.8-1.33 5.47-5.89 0-.34-.07-.68-.13-1-.39-2.29-1.47-3.26-3.81-3.31h-11.11zm0-12.73h6.53c1.65 0 3.3-.07 4.94-.25a2.79 2.79 0 0 0 2.55-2.75c.15-2 .81-4.15-1.11-5.73a2.17 2.17 0 0 0-1.26-.48h-11.64zM236.35 35.06c5.52 0 10.77-.16 16 .06 3.15.14 4.92 2.2 5.24 5.34.14 1.35.09 2.73.1 4.09 0 2.73-1 4.79-4.46 5.67 3.84.83 4.24 3.27 4.13 6.06-.08 2 0 4.08 0 6.07-2.8.65-3 .51-3-2 0-1.65 0-3.31-.11-5-.14-2.35-1.12-3.62-3.4-3.75-3.47-.21-7-.16-10.44-.1-.32 0-.89.89-.9 1.38-.08 3.13 0 6.27 0 9.36-2.67.86-3.08.59-3.09-1.9v-23.3c-.07-.58-.07-1.2-.07-1.98zm3.22 2.73v10.9c3.79 0 7.43.12 11.07 0 2.69-.12 3.75-1.34 3.93-4a36 36 0 0 0 0-3.93 2.71 2.71 0 0 0-2.63-2.87c-4.09-.19-8.18-.1-12.37-.1zM211 34.93H227.24c1 0 1.47.23 1.46 1.33s-.44 1.37-1.44 1.36h-13.17V47H228v2.57h-14.06c0 3.31 0 6.43.06 9.54 0 .29.87.77 1.34.78 3.6.07 7.2 0 10.8 0h2.17c.73 2.38.54 2.67-1.67 2.67h-14.23c-.94 0-1.66 0-1.65-1.31V35.7a4.5 4.5 0 0 1 .24-.77zM176.06 35.17c-2.55 3.95-4.81 7.86-7.49 11.46a13.52 13.52 0 0 0-2.85 9.86c.19 2 0 4 0 6h-3.11c0-3.3.08-6.54 0-9.78a6.85 6.85 0 0 0-.93-3.16c-2.6-4.3-5.33-8.53-8-12.78-.32-.51-.6-1.06-.92-1.63 3.05-.62 3.15-.59 4.6 1.69 2.26 3.56 4.51 7.12 6.94 10.95 1.09-1.66 2-3.1 3-4.57a72.49 72.49 0 0 0 3.85-6.21c1.06-2.14 2.61-2.41 4.91-1.83z"></path><path d="M185.27 59.73v-10h11.06c2.34 0 3.42 1 3.81 3.31.06.34.11.68.13 1 .33 4.56-.89 5.88-5.47 5.89h-9.06a2.38 2.38 0 0 1-.47-.2zM185.28 47v-9.28h11.64a2.17 2.17 0 0 1 1.26.48c1.93 1.58 1.26 3.75 1.11 5.73a2.79 2.79 0 0 1-2.55 2.79c-1.63.18-3.29.22-4.94.25-2.09.03-4.2.03-6.52.03zM239.57 37.79c4.19 0 8.28-.1 12.36 0a2.71 2.71 0 0 1 2.63 2.87 36 36 0 0 1 0 3.93c-.18 2.68-1.24 3.9-3.93 4-3.63.16-7.28 0-11.07 0z"></path></g><path class="cls-2" d="M36.94 51.76l12.81 1.14-2.52 24.54H34.2l2.74-25.68z"></path></g></g>
		</symbol>
	
		<symbol id="menu" viewBox="0 0 138.62 105.35">
			<title>Asset 23</title><g data-name="Layer 1"><rect width="138.62" height="16.46" rx="1.48" ry="1.48"></rect><rect y="44.45" width="138.62" height="16.46" rx="1.48" ry="1.48"></rect><rect y="88.89" width="138.62" height="16.46" rx="1.48" ry="1.48"></rect></g>
		</symbol>
	
		<symbol id="search" viewBox="0 0 154.7 156.46">
			<title>Asset 16</title><path d="M151.58 138.23l-39.14-39.14A62.24 62.24 0 1 0 97 113.9l39.44 39.44a10.72 10.72 0 0 0 15.11 0 10.72 10.72 0 0 0 .03-15.11zm-133.89-76a44.58 44.58 0 1 1 44.58 44.58 44.63 44.63 0 0 1-44.58-44.54z" data-name="Layer 1"></path>
		</symbol>
	
		<symbol id="ung-i" viewBox="0 0 240.25 159.07">
			<title>Asset 2</title><g data-name="Layer 1"><path d="M240.25 60.67v-45.9c0-7.36-4.43-13.94-9.87-14.64h-.22a8 8 0 0 0-1.57-.1Q120.24 6.18 11.9 12.38c-4.24.24-7.59 2.55-10 6.81a13.31 13.31 0 0 0-1.72 5.87l-.18.37v84.44l.13.89c.08.44.15.89.24 1.33 1.09 5.58 4.14 9.19 9.06 10.73a9.31 9.31 0 0 0 2.43.41l100.54 3.35v31.61l15.45.88v-32l100.69 3.34a9.32 9.32 0 0 0 7.3-3.31c3-3.2 4.41-7.35 4.41-12.69q-.01-26.85 0-53.74zm-7.14 54.24c0 3.88-2.33 7.09-5.09 7C159.53 120 86.47 118 12.42 116c-2.79-.08-5-3.14-5.12-5.73 0-.51 0-1-.05-1.54v-.17c0-1.33-.1-2.71-.1-4.07V26.85A8.14 8.14 0 0 1 9 21.23a4.33 4.33 0 0 1 3.12-1.63L101.5 15l42.26-2.16c27.72-1.42 56.37-2.88 84.55-4.36 2-.1 4.21 2.42 4.66 5.3a15.77 15.77 0 0 1 .14 2.38v6.27c.01 30.33.02 61.67 0 92.49z"></path><path d="M88.23 81.37c-.38-1-.77-2-1.16-3l-.07-.22c-.48-1.22-1-2.43-1.42-3.65l-4.74-12.41-.84-2.16-.84-2.21-.2-.53c-.47-1.25-.95-2.5-1.43-3.75s-1.07-2.72-1.63-4.1l-2.4-6-2.14 4.33a7.59 7.59 0 0 0-.33.71l-.7 1.78-.12.3q-.5 1.3-1 2.59-2.48 6.22-5 12.39-2.79 6.89-5.6 13.72a13.8 13.8 0 0 0-1.2 6.06c.09 1.83.07 3.73 0 5.57v1.55L49 92.28v-2.6a2.82 2.82 0 0 0-.75-2.07c-1.48-1.48-3.07-3-5-4.89q-2.67-2.56-5.36-5.08l-1.1-1c-1.1-1-2.24-2.1-3.39-3.12a2.75 2.75 0 0 0-3.5.11 286.7 286.7 0 0 0-6.9 6.63l-3.53 3.41-.4.39-3.43 3.24a3.48 3.48 0 0 0-1.13 2.7v18.51l74 1.57.13-2v-2.63-22.2a5 5 0 0 0-.41-1.88zM224.72 76.42a4.81 4.81 0 0 0-.94-2.78q-8-10.39-16-20.52l-2.25-2.84-.37-.44-1.51-1.79-1.56 1.56a3 3 0 0 0-.32.35l-2 2.64q-8 10.39-16 20.58a4.57 4.57 0 0 0-.83 2.68q0 7.09.09 14.18v5.8a3.05 3.05 0 0 0-.71-.64c-1.24-.76-2.49-1.49-3.74-2.22l-.09-.05-2.82-1.66-3-1.81c-1.41-.86-2.87-1.74-4.32-2.58l-.21-.13a3.17 3.17 0 0 0-3.65-.29q-3.16 1.94-6.32 3.84l-.4.24-7.7 4.62a3.45 3.45 0 0 0-1.48 2.66v1.56h-2.81V96.9 83.5a5.31 5.31 0 0 0-.52-2.24c-1.77-3.6-3.52-7.09-5.2-10.38a3 3 0 0 0-1.47-1.33l-.1-.05a2.28 2.28 0 0 0-1.38-.23h-4.59l-32.52.37a3 3 0 0 0-2.85 1.65q-1.72 3.33-3.47 6.61l-1.44 2.71a7 7 0 0 0-.82 3.4v25.91l91.68 1.93 41.51.88.08-2.39v-.61-4.23q.06-14.5.03-29.08z"></path></g>
		</symbol>
	
		<symbol id="ung-til-ung" viewBox="0 0 248.54 166.43">
			<title>Asset 5</title><path d="M248.54 142.34c-.52-.05-1-.14-1.57-.14H192c-.52 0-1 .05-1.94.1 3 7.84 4.69 15.74 4.09 24.13H54.4a54.36 54.36 0 0 1 4.09-24.08c-.82-.06-1.38-.15-2-.15H1.37a12.76 12.76 0 0 0-1.37.14v-7.54c.38-1.59.75-3.19 1.14-4.78 3.06-12.41 10.64-21.35 21.5-27.66 2.88-1.68 6-3 8.82-4.32-2-3.79-4-7.62-6.1-11.45a3.13 3.13 0 0 0-.8-.86 15.93 15.93 0 0 1-3.71-19.36 5.15 5.15 0 0 0 .4-2.27c.15-4.42-.07-8.88.46-13.25.68-5.68 4.22-9.58 9.53-11.36 4.23-1.42 8.71-2.08 13.09-3 3-.65 6-1.08 8.92-1.87a9.31 9.31 0 0 0 3.53-2.07c2.91-2.57 5.7-5.28 8.8-8.19.37 3.55.72 6.75 1 10 .09.86.18 1.71.23 2.57a5.67 5.67 0 0 0 2.77 4.82A16.56 16.56 0 0 1 76.56 53c.57 3.64.54 7.37.88 11a16.53 16.53 0 0 0 .83 3.15c.13.44.39.84.55 1.27 1.92 5.29-.46 13.83-4.81 17.39a4.33 4.33 0 0 0-1.11 1.34c-.9 1.91-1.7 3.85-2.68 5.61s-2.16 3.46-3.29 5.24a80.65 80.65 0 0 1 8.64 4.27c3.59 2.31 6.86 5.1 10.32 7.61a2.55 2.55 0 0 0 2 .53c4.42-1.87 8.79-3.88 13.38-5.94-.6-.85-1.34-1.75-1.91-2.75-2.71-4.67-5.36-9.37-8.07-14a7.38 7.38 0 0 0-1.75-2.49 15.43 15.43 0 0 1-6.3-8.64c-1.33-4.67-2-9.45-.7-14.28a5.54 5.54 0 0 1 .95-2.36C85.16 58.19 85 56.14 85 54c-.09-4-.1-7.94-.08-11.91.07-13.64 6.2-20.18 18.38-23.54 5-1.38 10.26-1.87 15.38-2.88 4.4-.87 8.84-1.67 13.14-2.93 4-1.18 6.26-4.95 9.33-7.51 1.85-1.54 3.53-3.32 5.54-5.23.18.89.36 1.48.43 2.09.49 4.87 1 9.74 1.4 14.61.19 2.52.92 4.27 3.35 5.72 5.28 3.14 8.22 8.22 10 14 2 6.37 1.85 12.92 1.77 19.47a8.33 8.33 0 0 0 1.15 3.82 17 17 0 0 1 1.78 7c0 4.63-.58 9.32-3 13.38-1.23 2-3.15 3.66-4.75 5.47a6.89 6.89 0 0 0-1.45 1.79 58.3 58.3 0 0 1-9.5 16.38 10.76 10.76 0 0 0-.63 1c1.62.64 3.14 1.19 4.63 1.83 2.78 1.2 5.53 2.51 8.33 3.66.61.25 1.71.35 2.06 0a52.32 52.32 0 0 1 19.62-12.09c-.44-.71-.82-1.29-1.17-1.88-1.45-2.52-2.83-5.08-4.35-7.55a16.61 16.61 0 0 0-2.82-3.7c-3.4-3.07-4.12-7.12-4.39-11.33a11.44 11.44 0 0 1 1.7-7.4 4 4 0 0 0 .37-2.08c0-3.11-.14-6.22 0-9.33.28-9 4.18-14.14 12.92-16.46a123.86 123.86 0 0 1 14.59-2.73A16.87 16.87 0 0 0 209.46 30c1.74-2 3.82-3.62 6-5.68.17 1.22.34 2.15.43 3.08.39 3.75.71 7.51 1.19 11.24a3.23 3.23 0 0 0 1.26 2.06c5.57 3.6 8 9 8.72 15.29.2 1.64.22 3.3.27 4.95.07 2.54 0 5 1.32 7.43 2 3.6.43 14-4.58 17.39a3.35 3.35 0 0 0-1.1 1.11c-1.95 3.73-3.85 7.48-5.76 11.22 2.57 1.25 5.43 2.45 8.1 4 12.55 7.14 20.6 17.52 22.8 32a6.33 6.33 0 0 0 .37 1.09zM141.61 13.57a2.69 2.69 0 0 0-.66.4c-3.59 4.06-8.47 5.47-13.51 6.43-7.39 1.42-14.88 2.4-22.21 4.09-9.25 2.13-13.85 6.73-14 16-.12 6.14.11 12.29.12 18.44 0 .77-.21 1.9-.72 2.23a5.46 5.46 0 0 0-2.49 5.3 35 35 0 0 0 1.51 9.11c.6 1.83 2.35 3.43 4.05 4.59a5.37 5.37 0 0 1 2.3 2.62c3 7.71 6.74 15 13 20.58 9.08 8.18 19.73 8.59 29 1.2 5.69-4.56 9.56-10.51 12.51-17.1 1.28-2.86 1.72-6.26 5.33-7.54a3.88 3.88 0 0 0 1.59-1.72 21.53 21.53 0 0 0 2.88-13.11 4.34 4.34 0 0 0-1.65-2.72 3 3 0 0 1-1.24-2.66c-.13-5.88 0-11.79-.62-17.61-.76-7.07-4.1-12.78-10.87-15.9a3.67 3.67 0 0 1-2.31-2.92c-.62-3.21-1.34-6.42-2.01-9.71zm46.08 146.7c.2-5.78-2.63-15.32-6.29-21.57-6.3-10.76-15.27-18.61-26.32-24.21-1.1-.56-1.65-.45-2.41.59a33.14 33.14 0 0 1-20.36 13.52c-14.72 3-27-1.4-36.37-13.33-1-1.27-1.69-1.36-2.89-.59-3.76 2.44-7.72 4.61-11.27 7.31a53 53 0 0 0-19.85 29.53c-.72 2.76-1 5.65-1.46 8.58H88v-2.52c0-3.44 0-6.88.05-10.32a3 3 0 1 1 6.08 0c.1 2.78 0 5.56 0 8.33v4.42a5.35 5.35 0 0 0 .88.21h57.76c1.28 0 1.55-.56 1.53-1.69-.05-3.17 0-6.35 0-9.53v-1.79c.15-1.94 1.21-3 2.93-3.1a2.88 2.88 0 0 1 3.15 3.07c.1 3.7.1 7.41 0 11.11 0 1.48.45 1.95 1.94 1.93 5.89-.08 11.78 0 17.66 0zm22.95-122.52c-4 2.86-8.51 3.63-13 4.43-3.38.61-6.78 1.13-10.16 1.73-7 1.25-10.09 4.92-10.11 11.95 0 3.24 0 6.48.08 9.72 0 1.7.29 3.39-1.5 4.59a2.86 2.86 0 0 0-.68 2.17 26.43 26.43 0 0 0 .59 4.7c.41 1.87 1.29 3.43 3.36 4a2.38 2.38 0 0 1 1.2 1.38 45.69 45.69 0 0 0 7.35 12.81c5.3 6.6 13.79 7.65 20.35 2.35 4.63-3.74 7.38-8.71 9.47-14.14a3.8 3.8 0 0 1 1.1-1.76c3.05-2.1 5.12-6.66 4.44-10.2a2 2 0 0 0-.75-1.3c-1.23-.57-1.19-1.56-1.25-2.65-.22-4.54-.3-9.11-.84-13.61a9.81 9.81 0 0 0-5.54-8 5.89 5.89 0 0 1-3.61-5c-.14-.92-.29-1.86-.5-3.17zm-150 .45A49.16 49.16 0 0 1 54 40.69c-5.47 1.22-11 2.2-16.52 3.21-6.94 1.26-10.11 4.94-10.14 11.95q0 5.06.11 10.12c0 1.54.16 3-1.37 4a2.76 2.76 0 0 0-.77 2.13 41.17 41.17 0 0 0 .79 5.66A4.14 4.14 0 0 0 29.05 81a2.62 2.62 0 0 1 1.39 1.43 42.24 42.24 0 0 0 7.46 13c5.27 6.3 13.16 7.46 19.59 2.72a29.51 29.51 0 0 0 7.59-9c1.83-3.05 1.94-7.22 5.87-9 .58-.25.93-1.28 1.14-2a32.87 32.87 0 0 0 1-4.64c.19-1.42.37-2.88-1.35-3.77-.42-.22-.56-1.27-.58-1.94-.09-3.24.09-6.5-.18-9.72-.41-4.93-1.51-9.72-6.44-12.19a6.15 6.15 0 0 1-3.5-5.07c-.1-.93-.27-1.82-.41-2.61zm159.26 67.93c-5.4 6.7-12.13 10.49-20.74 10.47s-15.32-3.84-20.58-10.42a37.19 37.19 0 0 0-11.49 8.12c2.08 1.65 4.06 3.07 5.88 4.68a64.57 64.57 0 0 1 13 15.36 3.07 3.07 0 0 0 2.08 1.44c9.85.09 19.7.05 29.55.08 1.12 0 1.52-.41 1.48-1.52-.06-2 0-4 0-5.95 0-2.33 1.16-3.62 3-3.6s3 1.29 3 3.64v7.21H242c-2-13.94-9.93-23.12-22.1-29.51zM6.62 135.84h15.39c1.12 0 1.27-.63 1.26-1.54 0-2.12-.07-4.24 0-6.35s1.31-3.18 3.09-3.17 2.89 1.2 3 3.27c.08 1.72 0 3.44 0 5.16 0 2.62 0 2.63 2.54 2.63 9.07 0 18.13-.05 27.19 0a3.8 3.8 0 0 0 3.78-2.14 58.36 58.36 0 0 1 14.68-16.47c1.23-.95 2.4-2 4.07-3.33l-11.58-8.1c-5.55 7-12.32 10.78-20.89 10.77s-15.45-3.83-20.67-10.41C15.19 112.58 7 125.1 6.62 135.84zm94.19-24.24c6.84 8.45 15.43 12.45 26 11.56a28 28 0 0 0 20.79-11.66 28.29 28.29 0 0 1-3.11-1c-1.89-.88-3.29-.38-5 .76-9.58 6.21-19.55 6.73-29.26.58-3-1.87-5.3-2-8.15-.71-.35.13-.67.23-1.27.47zm-65.49-8.48l-.18.77c7.9 9.59 22.78 7.57 27.9-.49a5.85 5.85 0 0 0-2.88.63 19.43 19.43 0 0 1-21.8-.1 9.88 9.88 0 0 0-3.05-.81zm177.77.14a8 8 0 0 0-2.63.58c-7.54 4.78-15 4.69-22.45-.14-.71-.46-1.85-.23-2.79-.32 7.55 9.62 21.78 8.62 27.86-.12z" data-name="Layer 1"></path>
		</symbol>
	
</svg>
