<svg viewBox="0 0 128 128" xmlns="http://www.w3.org/2000/svg">
  <g fill="none" fill-rule="evenodd">
    <path d="m95.7 27c-6.069 0-12.672.688-18.1 2.619-12.176 4.416-14.891 4.469-27.22 0-5.413-1.931-12.03-2.619-18.09-2.619-10.512 0-22.24 2.064-32.29 4.683v9.541c4.517 1.36 5.696 3.344 6.416 7.963 2.032 13.03 6.693 25.813 27.03 25.813 16.197 0 21.605-12.05 25.18-23.17 1.819-5.653 8.869-5.797 10.715-.08 3.589 11.141 8.971 23.253 25.2 23.253 20.341 0 25.01-12.784 27.03-25.819.72-4.619 1.899-6.597 6.421-7.957v-9.541c-10.06-2.619-21.787-4.683-32.3-4.683m-40.971 20.341c-2.763 11.595-7.253 22.325-21.285 22.325-17.605 0-21.19-10.149-22.8-26.523-.384-3.984.491-5.547 1.179-6.373 5.05-6.05 31.744-5.803 40.592-.491 2.533 1.52 4.176 3.205 2.315 11.06m62.61-4.197c-1.605 16.373-5.2 26.523-22.8 26.523-14.02 0-18.517-10.731-21.275-22.325-1.872-7.856-.224-9.541 2.315-11.06 8.88-5.333 35.557-5.536 40.592.491.688.832 1.563 2.395 1.168 6.373m-25.803-5.979c8.208-1.248 17.696-.16 20.22 2.864.555.661 1.248 1.909.939 5.099-.165 1.685-.357 3.285-.597 4.8-2.187-7.931-7.771-12.176-20.56-12.763m-75.65 12.763c-.24-1.515-.437-3.115-.603-4.8-.309-3.189.389-4.437.944-5.099 2.528-3.02 12.02-4.112 20.224-2.864-12.789.587-18.373 4.832-20.565 12.763m85.44 41.41c-6.133 15.301-32.17 11.552-37.33 1.968-5.173 9.584-31.2 13.333-37.33-1.968 3.083 2.699 8.347 3.568 12.363 2.981 11.84-1.733 10.891-12.923 19.17-12.923 2.267 0 4.32.944 5.803 2.475 1.483-1.531 3.531-2.475 5.797-2.475 8.277 0 7.333 11.195 19.17 12.923 4.02.587 9.28-.283 12.368-2.981"
    />
  </g>
</svg>