<svg viewBox="0 0 128 128" xmlns="http://www.w3.org/2000/svg">
  <g fill="none" fill-rule="evenodd" transform="translate(0 15)">
    <path d="m40.44 58.24c0-19.858 20.456-36.01 45.581-36.01 6.85 0 13.345 1.211 19.2 3.373-8.415-15.08-27.804-25.606-50.37-25.606-30.29 0-54.849 18.979-54.849 42.38 0 11.829 6.281 22.518 16.403 30.21l-4.01 19.668 18.06-11.948c7.348 2.85 15.644 4.442 24.39 4.442h.403c-9.102-6.58-14.814-16.03-14.814-26.509"
    />
    <path d="m127.66 59.28c0-17.625-18.417-31.948-41.1-31.948-22.684 0-41.1 14.347-41.1 31.948 0 17.601 18.441 31.948 41.1 31.948 5.167 0 10.216-.76 15.05-2.233l13.13 8.266-1.944-13.468c9.434-6.128 14.862-14.988 14.862-24.513" />
  </g>
</svg>