<?xml version="1.0" encoding="UTF-8" standalone="no"?>
<svg id="svg4186" xmlns:rdf="http://www.w3.org/1999/02/22-rdf-syntax-ns#" xmlns="http://www.w3.org/2000/svg" height="24" width="24.947" version="1.1" xmlns:cc="http://creativecommons.org/ns#" xmlns:dc="http://purl.org/dc/elements/1.1/" viewBox="0 0 24.946817 24">
 <metadata id="metadata4196">
  <rdf:RDF>
   <cc:Work rdf:about="">
    <dc:format>image/svg+xml</dc:format>
    <dc:type rdf:resource="http://purl.org/dc/dcmitype/StillImage"/>
    <dc:title/>
   </cc:Work>
  </rdf:RDF>
 </metadata>
 <g id="g4188" fill-rule="evenodd" fill="#6b6866" transform="matrix(.19490 0 0 .19490 -.0013643 -.39058)">
  <path id="path4190" d="m64.26 99.11c-6.786 0-13.398-0.986-19.614-2.884l-1.55-0.474-1.47 0.684-23.18 10.764 7.946-15.85 1.533-3.059-2.672-2.137c-10.381-8.304-16.266-19.495-16.266-31.368 0-24.27 24.58-44.33 55.28-44.33s55.28 20.05 55.28 44.33c0 24.267-24.582 44.33-55.28 44.33m-63.734-44.33c0 14.564 4.514 25.888 16.821 35.732l-11.912 23.778-5.435 10.849 11-5.121 32.999-15.02s13.216 2.568 20.261 2.568c35.03 0 63.739-23.424 63.739-52.784 0-29.365-28.699-52.784-63.734-52.784-35.04 0-63.739 23.42-63.739 52.784"/>
 </g>
</svg>
