<svg viewBox="0 0 128 128" xmlns="http://www.w3.org/2000/svg">
  <g fill="none" fill-rule="evenodd" transform="translate(1)">
    <path d="m49.27 118.22v-3.28-5.56h3.521l3.799-7.53 1.215.58-6.755 15.79" />
    <path d="m10.773 109.35v-19.22l-10.773-5.69 2.637-10.78-2.637-7.813 1.582-22.369.358-1.688 7.684-17.306 7.157-1.89 8.834-1.484 7.76-15.214 5.48-.63 6.365-5.266h1.584l-4.594 5.491 2.296 5.694v8.439l-3.73 9.789.189 16.18 2.844 3.376 5.291-1.489 2.13 5.292-4.426 9.838-7.346-1.939-.96 4.096-.168 8.893-8.31 8.46 1.25 6.32-5.655 16.88 5.292 2.74-1.94-3.37 1.94-1.46 4.765 6.12-5.819 2.11-7.421 1.04"
    />
    <path d="m48.11 102.93h-7.69l-6.36-10.13v-8.24l8.757-3.17 5.293 4.12v-4.12l2.655 4.43-1.335 1.92 4.424 6.63-2.844 8.56" />
    <path d="m58.641 69.63l8.679 1.54-.32 11.9 2.56-6.86 1.59 6.86 1.03-6.189-2.86-6.551 5.5-5.22 7.48 2.54-1.47 4.82.81 10.85-6.58 4.52v2.93l4.26 4.02-1.2 3.02-5.77 3.31 1.528 6.19-3.408 1.1-5.46-7.67-7.367-1.2-2.113-6.1v-5.85l-4.44-8.46 8.738-1.03 3.712-5.157"
    />
    <path d="m68.22 115.16l-8.348-4.9-3.562 6.39 7.94 5.23 7.94-.65-3.287-8.83z" />
    <path d="m70.39 110.26l3.91 9.3v6.04l1.612-5.88 3.01-6.18-3.652-3.28z" />
    <path d="m85.961 109.66l-1.421-3.61-3.97.82v2.02l-3.14.09.71 2.79" />
  </g>
</svg>