<svg viewBox="0 0 128 128" xmlns="http://www.w3.org/2000/svg"><g fill="none" fill-rule="evenodd"><path d="m77.67 80h8v48l-21.11-16-21.557 16v-48h7.803c4.427 3.104 7.365 5.333 13.531 5.333 5.2 0 10.03-2.213 13.333-5.333m-13.333-64c-11.76 0-21.333 9.568-21.333 21.333 0 11.765 9.573 21.333 21.333 21.333 11.765 0 21.333-9.568 21.333-21.333 0-11.765-9.568-21.333-21.333-21.333m36.939 28.14c.272.784.395 1.584.395 2.373 0 2.395-1.184 4.709-3.28 6.165-6.699 4.64-5.813 3.472-8.331 11.02-1.056 3.152-4.107 5.28-7.541 5.28h-.021c-8.261-.027-6.821-.469-13.483 4.208-1.397.981-3.035 1.472-4.677 1.472-1.643 0-3.28-.491-4.672-1.467-6.661-4.683-5.227-4.235-13.483-4.208h-.021c-3.44 0-6.485-2.128-7.536-5.28-2.523-7.557-1.659-6.389-8.331-11.02-2.107-1.461-3.291-3.776-3.291-6.171 0-.789.128-1.589.395-2.368 2.576-7.525 2.581-6.075 0-13.627-.267-.784-.395-1.584-.395-2.373 0-2.4 1.184-4.709 3.285-6.171 6.672-4.629 5.808-3.456 8.331-11.02 1.051-3.152 4.101-5.28 7.536-5.28h.021c8.24.027 6.779.507 13.483-4.213 1.397-.976 3.035-1.461 4.677-1.461 1.643 0 3.28.485 4.672 1.461 6.661 4.683 5.227 4.24 13.483 4.213h.021c3.44 0 6.485 2.128 7.541 5.28 2.523 7.552 1.637 6.384 8.331 11.02 2.101 1.456 3.285 3.771 3.285 6.165 0 .789-.123 1.595-.395 2.373-2.576 7.52-2.587 6.075 0 13.627m-10.272-6.811c0-14.725-11.936-26.667-26.667-26.667-14.725 0-26.667 11.941-26.667 26.667 0 14.725 11.941 26.667 26.667 26.667 14.731 0 26.667-11.941 26.667-26.667"/></g></svg>
