<svg viewBox="0 0 128 128" xmlns="http://www.w3.org/2000/svg">
  <g fill="none" fill-rule="evenodd" transform="translate(1)">
    <path d="m84.58 56.13v.885 22.658c0 2.087-.792 3.039-2.603 3.039h-52.17c-1.335 0-2.354.454-3.282 1.588-3.078 3.674-6.224 7.258-9.347 10.909-.158.181-.249.454-.385.703-.091-.045-.181-.136-.249-.181v-.748-8.324c0-2.472-1.2-3.878-3.327-3.878h-7.854c-1.562 0-2.422-.998-2.422-2.79v-50.782c0-1.837.86-2.812 2.399-2.812h49.11c.136 0 .294 0 .521.023.023.318.045.635.045.93 0 7.462 0 14.924.023 22.363 0 .885.091 1.792.339 2.631.747 2.336 2.241 3.606 4.391 3.788.272.023.566 0 .837 0h23.13.837"
    />
    <path d="m89.76 48.741v-1.043-23.611c0-4.695-2.263-7.53-6.07-7.53h-22.859-.815c0-.34-.023-.612-.023-.885v-12.883c0-1.928.679-2.79 2.218-2.79h60.792c1.539 0 2.218.862 2.218 2.79v43.18c0 1.928-.679 2.79-2.241 2.79h-6.496c-2.105 0-3.146 1.293-3.146 3.901v7.394 1.043c-.294-.34-.475-.567-.634-.748-2.693-3.379-5.387-6.759-8.03-10.206-.747-.975-1.607-1.429-2.693-1.429-3.802.023-7.605 0-11.407 0-.204.023-.453.023-.815.023"
    />
    <path d="m84.08 49.979h-.837-20.935c-1.652 0-2.309-.771-2.309-2.744v-19.936-.885c.272 0 .498-.023.724-.023h20.754c1.788 0 2.603.975 2.603 3.085v19.642.862" />
  </g>
</svg>