<svg viewBox="0 0 128 128" xmlns="http://www.w3.org/2000/svg">
  <g fill="none" fill-rule="evenodd" transform="translate(1)">
    <path d="m57.917 71.47c7.827 0 14.64 4.314 18.393 10.681l22.12.023v-12.02c0-4.475-3.591-8.097-7.988-8.097h-82.46c-4.42 0-7.988 3.622-7.988 8.097l.023 11.926 39.502.023c3.775-6.321 10.543-10.635 18.393-10.635" />
    <path d="m86.68 57.62h-9.762l-1.728 12.8h13.08z" />
    <path d="m56.33 63.42h-8.402v-7.297h8.402v7.297m7.712-10.232h-23.756l-4.903 12.8h33.1l-4.443-12.8" />
    <path d="m77.46 84.24c1.22 2.722 1.934 5.721 1.934 8.927 0 12.02-9.622 21.777-21.477 21.777-11.878 0-21.5-9.758-21.5-21.777 0-3.207.714-6.205 1.934-8.951h-38.35v32.826c0 4.452 3.545 8.07 7.988 8.07h82.46c4.42 0 7.988-3.622 7.988-8.07l.023-32.803h-20.994"
    />
    <path d="m69.74 86.57c-.345-.6-.76-1.176-1.22-1.707-2.509-3.045-6.261-5.075-10.497-5.075-4.236 0-7.988 2.01-10.52 5.05-.46.554-.875 1.13-1.243 1.753-1.266 2.099-2.026 4.521-2.026 7.151 0 7.682 6.169 13.933 13.766 13.933 7.573 0 13.743-6.228 13.743-13.933.023-2.653-.737-5.075-2-7.174"
    />
    <path d="m70.59 17.878c-16.942-7.105-26.588-5.929-29.534-17.878-7.965 46.02 24.861 46.02 24.861 46.02l15.308-15.341c.023 0-2.325-9.32-10.635-12.803m-24.447-4.429c4.051 3.506 23.526 8.997 28.406 16.08-3.338 4.983-18.83-.185-28.406-16.08" />
    <path d="m120.46 90.02c3.821-3.829-.829-8.512-.829-8.512l-27.969-28.03c-4.673-4.683-10.01-18.02-10.01-18.02l-15.308 15.341c0 0 13.01 5.652 17.679 10.335 4.673 4.66 27.969 28.03 27.969 28.03 0 0 4.65 4.683 8.471.854" />
    <path d="m124.89 90.02c3.821-3.829-.829-8.512-.829-8.512l-27.969-28.03c-4.673-4.683-10.01-18.02-10.01-18.02l-15.308 15.341c0 0 13.01 5.652 17.679 10.335 4.673 4.66 27.992 28.03 27.992 28.03 0 0 4.627 4.683 8.448.854" />
  </g>
</svg>