<svg viewBox="0 0 128 128" xmlns="http://www.w3.org/2000/svg">
  <g fill="none" fill-rule="evenodd">
    <path d="m104.48 30.562c.001 2.996-1.804 5.697-4.571 6.843-2.767 1.147-5.953.513-8.07-1.605-2.118-2.118-2.752-5.304-1.605-8.07 1.147-2.767 3.848-4.572 6.843-4.571 4.089.001 7.403 3.315 7.404 7.404m23.522 33.438l-.002.093-.421 26.851c-.227 20.14-16.496 36.405-36.632 36.632l-26.946.423-.093-.002-26.851-.419c-20.14-.227-36.406-16.495-36.634-36.632l-.421-26.946.002-.093.419-26.852c.229-20.14 16.498-36.404 36.634-36.632l26.945-.422.093.002 26.851.419c20.14.228 36.404 16.496 36.632 36.632l.423 26.946m-11.92 0l-.419-26.758c-.155-13.689-11.214-24.749-24.903-24.904l-26.758-.418-26.758.418c-13.689.155-24.749 11.214-24.904 24.904l-.418 26.758.418 26.758c.155 13.689 11.215 24.749 24.904 24.904l26.758.418 26.758-.418c13.689-.154 24.749-11.214 24.903-24.904l.419-26.758m-19.215 0c0 13.293-8.01 25.277-20.289 30.364-12.281 5.087-26.417 2.275-35.817-7.125-9.4-9.4-12.211-23.536-7.124-35.817 5.087-12.281 17.07-20.289 30.364-20.288 18.14.02 32.845 14.723 32.866 32.866m-11.918 0c0-8.473-5.104-16.11-12.931-19.353-7.828-3.242-16.838-1.45-22.828 4.541-5.991 5.991-7.783 15-4.541 22.828 3.242 7.828 10.881 12.931 19.353 12.931 11.563-.013 20.934-9.384 20.947-20.948"/>
  </g>
</svg>