<svg viewBox="0 0 128 128" xmlns="http://www.w3.org/2000/svg">
  <g fill="none" fill-rule="evenodd">
    <path d="m96 53.33v-21.333c0-17.669-14.331-32-32-32-17.669 0-32 14.331-32 32v21.333h-16v74.67h96v-74.67h-16m-26.667 41.19v12.144h-10.667v-12.144c-3.173-1.851-5.333-5.248-5.333-9.189 0-5.888 4.779-10.667 10.667-10.667 5.888 0 10.667 4.779 10.667 10.667 0 3.936-2.155 7.339-5.333 9.189m-26.667-41.19v-21.333c0-11.765 9.568-21.333 21.333-21.333 11.76 0 21.333 9.568 21.333 21.333v21.333h-42.667"/>
  </g>
</svg>