<svg viewBox="0 0 128 128" xmlns="http://www.w3.org/2000/svg">
  <g fill="none" fill-rule="evenodd" transform="translate(1)">
    <path d="m19.16 108.41c.481-.584.481-.736.912-1.32 3.217-4.315 5.927-8.579 7.244-13.756 1.52-6.04.583-12.06.355-18.12-.101-2.767-1.317-4.264-3.748-5.609-14.13-7.919-22.03-19.569-20.439-36.37.583-6.168 1.925-12.234 6-17.16 11.09-13.376 25.682-17.97 42.4-15.381 12.588 1.954 20.287 10.406 25.07 21.828 2.077 4.975 4.179 9.924 6.382 14.822 2.077 4.569 4.331 9.04 6.509 13.579.329.685.608 1.421 1.114 2.64h-11.575c2.026 2.614 3.951 4.721 5.42 7.107 2.127 3.401.785 5.761-3.191 6.193-.81.076-1.646.152-2.558.254.937 1.066 1.596 1.878 2.305 2.614 3.343 3.553 2.786 6.421-1.646 8.35-.355.152-.684.33-1.038.406-1.545.305-1.697 1.117-1.418 2.614.557 2.995.962 6.066 1.064 9.112.101 2.716-1.494 4.086-4.23 4.086-3.065.025-6.155.076-9.219-.076-1.849-.102-2.482.482-2.431 2.386.127 3.807.051 7.614.051 11.624-1.342.076-2.431.203-3.52.203-12.436 0-24.871-.025-37.31 0-.836-.025-2.355-.025-2.507-.025"
    />
    <path d="m120.82 83.21c.38-.584 1.013-1.675 1.773-2.64 1.19-1.472 2.634-1.574 3.723 0 .785 1.168 1.596 2.665 1.596 4.01 0 6.751-.279 13.477-.38 20.229-.025 1.878-.709 2.614-2.685 2.589-10.11-.127-20.21-.152-30.32-.102-1.849 0-2.431-.508-2.406-2.411.203-14.34.253-28.655.456-42.995.025-1.244.532-2.665 1.266-3.68.659-.939 1.925-1.98 2.913-1.98.785.025 1.773 1.447 2.254 2.437.507 1.041.659 2.31.684 3.477.051 6.218.025 12.462.025 18.68v2.513c1.95-1.396 3.546-3.274 5.471-3.731 2.583-.609 3.166 2.335 4.052 3.629 2.052-1.497 3.951-3.985 5.927-4.04 1.798-.076 3.672 2.487 5.648 4.01"
    />
  </g>
</svg>