<svg viewBox="0 0 128 128" xmlns="http://www.w3.org/2000/svg">
  <g fill="none" fill-rule="evenodd">
    <path d="m127.07 37.09c-3.645-18.16-16.679-29.867-33.468-29.867-9.389 0-19.551 3.829-29.492 11.05-10.05-7.439-20.21-11.269-29.712-11.269-16.789 0-29.933 11.816-33.468 30.2-5.302 27.24 11.708 63.45 61.52 83.15.552.219 1.105.328 1.657.328.552 0 1.105-.109 1.657-.328 49.705-20.13 66.6-56.23 61.3-83.26m-62.959 74.28c-43.74-17.942-58.873-49.23-54.34-72.53 2.651-13.894 12.371-22.975 24.631-22.975 8.284 0 17.562 3.939 26.841 11.487 1.657 1.313 3.976 1.313 5.633 0 9.278-7.33 18.446-11.159 26.73-11.159 12.261 0 21.87 8.862 24.631 22.646 4.529 23.08-10.493 54.26-54.12 72.53"
    />
  </g>
</svg>