<svg viewBox="0 0 128 128" xmlns="http://www.w3.org/2000/svg"><g fill-rule="evenodd"><path d="m44.03 82.78l-32.712-54.29c-6.863 10.148-10.875 22.372-10.875 35.517 0 6.533.993 12.838 2.834 18.775h40.753"/><path d="m57.777 37.05h63.764c-8.189-17.418-24.06-30.528-43.22-34.959l-20.547 34.959"/><path d="m37.31 56.73l32.899-55.977c-2.043-.2-4.111-.307-6.205-.307-18.949 0-35.976 8.346-47.629 21.542l20.936 34.742"/><path d="m50.56 125.56l20.13-35.1h-64.45c8.453 18.383 25.418 32.06 45.824 35.96l-1.5-.86"/><path d="m83.87 44.733l32.13 55.747c7.273-10.335 11.561-22.912 11.561-36.48 0-6.715-1.055-13.187-2.995-19.267h-40.691"/><path d="m90.42 71.48l-32 55.813c1.841.161 3.702.259 5.583.259 18.519 0 35.21-7.964 46.835-20.644l-20.416-35.428"/></g>
</svg>