<?xml version="1.0" encoding="UTF-8" standalone="no"?>
<!-- Generator: Adobe Illustrator 16.0.4, SVG Export Plug-In . SVG Version: 6.00 Build 0)  -->
<svg id="Cyberhuslogo" xmlns:rdf="http://www.w3.org/1999/02/22-rdf-syntax-ns#" xmlns="http://www.w3.org/2000/svg" enable-background="new 0 0 650 335" xml:space="preserve" height="30" viewBox="0 0 124.85484 30" width="124.85" version="1.1" y="0px" x="0px" xmlns:cc="http://creativecommons.org/ns#" xmlns:dc="http://purl.org/dc/elements/1.1/"><metadata id="metadata100"><rdf:RDF><cc:Work rdf:about=""><dc:format>image/svg+xml</dc:format><dc:type rdf:resource="http://purl.org/dc/dcmitype/StillImage"/><dc:title/></cc:Work></rdf:RDF></metadata><g id="typelogo" transform="translate(-.413 -193.86)"><g id="g5"><g id="g4266" transform="matrix(.19233 0 0 .19233 .33357 180.8)"><g id="g7"><polygon id="background" points="19.049 223.78 25.97 168.4 0.413 134.43 84.541 67.873 155.68 139 129.56 169.82 130.4 223.86" fill="#04080a"/><polygon id="overlay" points="47.765 143.77 40.386 204.13 110.75 204.16 109.79 144.5 121.46 148.88 129.49 139.39 82.791 92.685 26.599 137.19 35.35 148.88" fill="#8cc6e8"/><polygon id="door" points="91.625 160.72 86.595 204.47 63.459 204.41 68.266 158.64" fill="#1d9ed1"/><polygon id="door_1_" points="91.535 159.02 86.51 202.78 63.372 202.72 68.179 156.95" fill="#1d9ed1"/></g><g id="g13"><g id="g15"><g id="g17"><path id="path19" d="m626.08 111.82-5.219-0.225-146.45 0.13-2.728 13.003s-6.028-12.214-23.113-12.693l-171.31 0.025-0.011 0.417c-14.15-19.529-38.92-32.488-67.13-32.488-43.975 0-79.626 31.454-79.626 70.258s35.651 70.258 79.626 70.258c27.053 0 50.94-11.915 65.33-30.11l253.84-0.04 1.199-4.71s2.781 2.789 10.979 4.263c3.254 0.587 7.364 0.911 12.491 0.689 18.045-0.799 17.086-0.959 27.467-7.667 0 0 7.184 8.942 24.587 7.826 17.405-1.118 25.868 0.32 35.93-17.245l7.344-35.29c-0.001-0.001 4.738-24.006-23.205-26.401z" fill="#04080a"/></g></g><g id="g21"><g id="g23"><path id="path25" d="m219.48 188.11c-23.054 0-41.746-17.45-41.746-38.976s18.691-38.977 41.746-38.977c14.506 0 27.287 6.902 34.768 17.391l7.687-6.317c-10.89-13.595-29.317-22.525-50.211-22.525-33.462 0-60.589 22.904-60.589 51.167 0 28.254 27.127 51.173 60.589 51.173 20.415 0 38.467-8.525 49.444-21.591l-8.184-7.062c-7.611 9.539-19.787 15.717-33.504 15.717z" fill="#8cc6e8"/></g></g><g id="g27" fill="#8cc6e8"><path id="path29" d="m298.28 155.32v20.779h-5.641v-20.779l-18.257-29.009h6.573l14.736 23.301 14.738-23.301h6.703l-18.852 29.009z"/><path id="path31" d="m327.42 176.1v-49.788h25.222c9.359 0 11.552 4.449 11.552 13.145 0 5.244-1.063 8.76-6.242 10.488v0.133c6.637 1.195 7.701 5.973 7.701 12.148 0 8.96-3.316 13.874-11.747 13.874h-26.486zm5.639-28.081h16.396c6.772 0 9.095-1.525 9.095-9.292 0-6.707-2.587-7.437-8.495-7.437h-16.996v16.729zm0 23.102h17.86c6.103 0 9.09-0.729 9.09-8.365 0-6.572-0.994-9.889-8.431-9.759h-18.52v18.124z"/><path id="path33" d="m384.43 148.22h25.227v4.65h-25.227v18.254h26.354v4.979h-31.994v-49.788h31.994v4.979h-26.354v16.926z"/><path id="path35" d="m430.11 176.1h-5.644v-49.788h22.969c10.753 0 15.465 2.986 15.465 14.338 0 6.973-0.796 12.146-8.694 13.146v0.13c5.576 0.399 8.03 3.586 8.03 8.96v13.214h-5.641v-10.558c0-6.306-1.528-9.359-8.363-9.359h-18.122v19.917zm17.391-24.896c8.695-0.265 9.759-2.919 9.759-11.15 0-6.372-0.864-8.763-9.759-8.763h-17.391v19.913h17.391z"/><path id="path37" d="m519.72 176.1h-9.559l4.515-21.246h-23.166l-4.516 21.246h-9.559l10.556-49.788h9.559l-4.314 20.379h23.166l4.315-20.379h9.559l-10.556 49.788z"/><path id="path39" d="m587.03 126.31-7.502 35.38c-2.922 13.874-11.816 14.803-23.897 14.803-11.683 0-20.513-0.858-17.523-14.803l7.499-35.38h9.56l-7.502 35.38c-1.061 5.114 0.465 6.643 9.692 6.643 8.829 0 11.484-1.264 12.612-6.643l7.502-35.38h9.559z"/><path id="path41" d="m602.56 160.23-0.532 2.322c-1.193 5.709 1.196 6.108 10.024 6.108 8.694 0 10.223-1.593 11.417-7.371 1.525-7.1-2.455-6.171-9.824-6.568-10.556-0.664-19.184-0.265-16.064-14.738 2.854-13.674 11.617-14.071 23.565-14.071 10.156 0 18.387 0.332 15.598 13.407l-0.329 1.594h-9.56l0.332-1.594c1.129-5.374-0.996-5.573-7.701-5.573-9.492 0-11.217 0.929-12.346 6.237-1.329 6.108-0.133 6.309 9.491 6.905 15.136 0.929 19.118 1.726 16.396 14.401-2.922 14.009-9.823 15.202-22.637 15.202-11.018 0-20.909 0.335-17.922-13.939l0.531-2.322h9.561z"/></g></g></g></g></g></svg>
