<?xml version="1.0" encoding="UTF-8" standalone="no"?>
<!-- Generator: Gravit.io -->
<svg xmlns="http://www.w3.org/2000/svg" xmlns:xlink="http://www.w3.org/1999/xlink" style="isolation:isolate" viewBox="0 0 30 30" width="30pt" height="30pt"><defs><clipPath id="_clipPath_oPGEjvHxVq90gdZ0PiFcx3rSEIuthzr8"><rect width="30" height="30"/></clipPath></defs><g clip-path="url(#_clipPath_oPGEjvHxVq90gdZ0PiFcx3rSEIuthzr8)"><g style="isolation:isolate"><rect x="8" y="5" width="15" height="21" transform="matrix(1,0,0,1,0,0)" fill="rgb(235,235,235)"/></g><path d=" M 15 0 C 6.716 0 0 6.716 0 15 C 0 23.284 6.716 30 15 30 C 23.284 30 30 23.284 30 15 C 30 6.716 23.284 0 15 0 Z  M 15 23.984 C 14.079 23.984 13.333 23.238 13.333 22.317 C 13.333 21.396 14.079 20.65 15 20.65 C 15.921 20.65 16.667 21.396 16.667 22.317 C 16.665 23.236 15.919 23.98 15 23.98 L 15 23.984 Z  M 18.847 13.699 C 18.557 14.062 18.233 14.395 17.878 14.694 C 17.704 14.849 17.542 14.996 17.406 15.14 C 16.497 16.105 16.377 17.282 16.377 18.677 L 13.68 18.677 C 13.68 16.867 13.88 14.955 15.441 13.291 C 15.656 13.061 15.883 12.861 16.079 12.684 C 16.304 12.497 16.513 12.29 16.701 12.066 C 17.033 11.606 17.157 11.029 17.044 10.474 C 16.951 9.89 16.621 9.37 16.132 9.037 C 15.268 8.528 14.172 8.647 13.439 9.331 C 13.007 9.79 12.819 10.427 12.933 11.047 L 10.263 11.424 C 10.016 9.928 10.518 8.405 11.605 7.347 C 13.232 5.828 15.675 5.586 17.569 6.755 C 18.697 7.49 19.466 8.663 19.688 9.991 C 19.939 11.29 19.634 12.635 18.847 13.699 Z " fill="#586F89"/></g></svg>