<?xml version="1.0" encoding="UTF-8" standalone="no"?>
<!DOCTYPE svg PUBLIC "-//W3C//DTD SVG 1.1//EN" "http://www.w3.org/Graphics/SVG/1.1/DTD/svg11.dtd">
<svg version="1.1" xmlns="http://www.w3.org/2000/svg" xmlns:xlink="http://www.w3.org/1999/xlink" preserveAspectRatio="xMidYMid meet" viewBox="0 0 432 432" width="432" height="432"><defs><path d="M232.68 2.58L241.36 3.46L249.93 4.68L258.38 6.23L266.72 8.11L274.94 10.31L283.02 12.83L290.96 15.64L298.75 18.76L306.39 22.17L313.87 25.86L321.18 29.83L328.32 34.08L335.28 38.58L342.05 43.35L348.62 48.36L354.99 53.62L361.16 59.12L367.1 64.84L372.83 70.79L378.32 76.95L383.58 83.32L388.6 89.9L393.36 96.66L397.87 103.62L402.11 110.76L406.08 118.07L409.78 125.55L413.18 133.19L416.3 140.99L419.12 148.93L421.63 157.01L423.83 165.22L425.71 173.56L427.27 182.02L428.49 190.59L429.37 199.27L429.9 208.04L430.08 216.9L429.9 225.77L429.37 234.54L428.49 243.22L427.27 251.79L425.71 260.25L423.83 268.59L421.63 276.8L419.12 284.88L416.3 292.82L413.18 300.62L409.78 308.26L406.08 315.74L402.11 323.05L397.87 330.19L393.36 337.14L388.6 343.91L383.58 350.49L378.32 356.86L372.83 363.02L367.1 368.97L361.16 374.69L354.99 380.19L348.62 385.45L342.05 390.46L335.28 395.22L328.32 399.73L321.18 403.97L313.87 407.95L306.39 411.64L298.75 415.05L290.96 418.17L283.02 420.98L274.94 423.5L266.72 425.7L258.38 427.58L249.93 429.13L241.36 430.35L232.68 431.23L223.91 431.77L215.04 431.94L206.17 431.77L197.4 431.23L188.72 430.35L180.15 429.13L171.7 427.58L163.36 425.7L155.14 423.5L147.06 420.98L139.12 418.17L131.33 415.05L123.69 411.64L116.21 407.95L108.9 403.97L101.76 399.73L94.8 395.22L88.03 390.46L81.46 385.45L75.09 380.19L68.92 374.69L62.98 368.97L57.25 363.02L51.76 356.86L46.5 350.49L41.48 343.91L36.72 337.14L32.21 330.19L27.97 323.05L24 315.74L20.3 308.26L16.9 300.62L13.78 292.82L10.96 284.88L8.45 276.8L6.25 268.59L4.37 260.25L2.81 251.79L1.59 243.22L0.71 234.54L0.18 225.77L0 216.9L0.18 208.04L0.71 199.27L1.59 190.59L2.81 182.02L4.37 173.56L6.25 165.22L8.45 157.01L10.96 148.93L13.78 140.99L16.9 133.19L20.3 125.55L24 118.07L27.97 110.76L32.21 103.62L36.72 96.66L41.48 89.9L46.5 83.32L51.76 76.95L57.25 70.79L62.98 64.84L68.92 59.12L75.09 53.62L81.46 48.36L88.03 43.35L94.8 38.58L101.76 34.08L108.9 29.83L116.21 25.86L123.69 22.17L131.33 18.76L139.12 15.64L147.06 12.83L155.14 10.31L163.36 8.11L171.7 6.23L180.15 4.68L188.72 3.46L197.4 2.58L206.17 2.04L215.04 1.86L223.91 2.04L232.68 2.58ZM215.04 316.74L322.56 153.42L107.52 153.42L215.04 316.74Z" id="b2DVFJ36Bv"></path></defs><g><g><g><use xlink:href="#b2DVFJ36Bv" opacity="1" fill="#ebebeb" fill-opacity="1"></use><g><use xlink:href="#b2DVFJ36Bv" opacity="1" fill-opacity="0" stroke="#000000" stroke-width="0" stroke-opacity="0"></use></g></g></g></g></svg>