<!-- Generated by IcoMoon.io -->
<svg version="1.1" xmlns="http://www.w3.org/2000/svg" width="32" height="32" viewBox="0 0 32 32">
<title>instagram-with-circle</title>
<path d="M20.8 16c0 2.651-2.149 4.8-4.8 4.8s-4.8-2.149-4.8-4.8c0-0.274 0.029-0.541 0.078-0.8h-1.678v6.395c0 0.445 0.36 0.805 0.805 0.805h11.192c0.443 0 0.803-0.36 0.803-0.805v-6.395h-1.678c0.050 0.259 0.078 0.526 0.078 0.8zM16 19.2c1.766 0 3.2-1.434 3.2-3.2s-1.434-3.2-3.2-3.2-3.2 1.434-3.2 3.2 1.434 3.2 3.2 3.2zM19.84 12.64h1.918c0.266 0 0.482-0.216 0.482-0.48v-1.918c0-0.266-0.216-0.482-0.482-0.482h-1.918c-0.266 0-0.482 0.216-0.482 0.482v1.918c0.002 0.264 0.218 0.48 0.482 0.48zM16 0.64c-8.483 0-15.36 6.877-15.36 15.36s6.877 15.36 15.36 15.36c8.483 0 15.36-6.877 15.36-15.36s-6.877-15.36-15.36-15.36zM24 22.222c0 0.978-0.8 1.778-1.778 1.778h-12.445c-0.978 0-1.778-0.8-1.778-1.778v-12.445c0-0.978 0.8-1.778 1.778-1.778h12.445c0.978 0 1.778 0.8 1.778 1.778v12.445z"></path>
</svg>
