<svg xmlns="http://www.w3.org/2000/svg" viewBox="0 0 150.47 150.47"><title>Asset 19</title><g id="Layer_2" data-name="Layer 2"><g id="Layer_1-2" data-name="Layer 1"><g id="_3" data-name="3"><path d="M107.65,150.47H42.82A42.88,42.88,0,0,1,0,107.65V42.82A42.88,42.88,0,0,1,42.82,0h64.83a42.88,42.88,0,0,1,42.82,42.82v64.83A42.88,42.88,0,0,1,107.65,150.47ZM42.82,12.9A29.94,29.94,0,0,0,12.9,42.82v64.83a29.94,29.94,0,0,0,29.92,29.92h64.83a29.94,29.94,0,0,0,29.92-29.92V42.82A29.94,29.94,0,0,0,107.65,12.9Z"/><path d="M75.24,113.76a38.52,38.52,0,1,1,38.52-38.52A38.57,38.57,0,0,1,75.24,113.76Zm0-64.15a25.62,25.62,0,1,0,25.62,25.62A25.63,25.63,0,0,0,75.24,49.61Z"/><circle cx="115.44" cy="34.52" r="9.24"/></g></g></g></svg>