<svg xmlns="http://www.w3.org/2000/svg" viewBox="0 0 362.31 87.49"><defs><style>.cls-1{fill:#8ec6e9;}.cls-2{fill:#1e9ecb;}</style></defs><title>Asset 1</title><g id="Layer_2" data-name="Layer 2"><g id="Layer_1-2" data-name="Layer 1"><g id="_3gYYZc" data-name="3gYYZc"><path d="M47.34,0C51.18,3.9,55,7.81,58.88,11.7c5.92,6,11.87,11.89,17.76,17.79A98.79,98.79,0,0,1,83,21.86,42.43,42.43,0,0,1,105.56,10a57.31,57.31,0,0,1,11.2-1.31A47.76,47.76,0,0,1,142.11,16a43.71,43.71,0,0,1,11.27,10.11,2.22,2.22,0,0,0,1.55.65c3.37.06,6.74,0,10.12,0q42.1,0,84.2,0c4.25,0,8.24,1.11,11.39,4.23a33.18,33.18,0,0,1,2.12,2.59c.37-1.78.81-3.36,1-5s.77-2.28,2.55-2.28c26.58.06,53.16,0,79.74.1,3.71,0,7.5.26,10.8,2.55,4.85,3.37,5.89,7.9,5.3,12.86-.54,4.55-1.5,9-2.32,13.55-1,5.29-3.09,10-7.84,12.8a23.14,23.14,0,0,1-7.59,2.36,44,44,0,0,1-7.47.39c-4.35,0-8.5-.78-12-3.57-.74-.59-1.12-.53-1.87,0a16.9,16.9,0,0,1-9,3.23c-2.21.14-4.42.37-6.62.32-3.94-.1-7.87-.38-11.31-2.66-.12-.08-.33,0-.71,0,.38,2.32-1,2.39-2.83,2.39q-68.68-.06-137.36-.06a4.53,4.53,0,0,0-4,1.84A39.32,39.32,0,0,1,141,80.76a46.65,46.65,0,0,1-16.46,5.92,50.22,50.22,0,0,1-17-.15,47.51,47.51,0,0,1-18.84-7.6,38.24,38.24,0,0,1-15.7-21.44,1.11,1.11,0,0,0-.6-.68c0,.41-.08.81-.08,1.22,0,5.77,0,11.55,0,17.32,0,3.52.19,7,.35,10.57.05,1.21-.4,1.58-1.59,1.58q-29.67,0-59.34,0a14,14,0,0,1-1.45-.16c.79-6.09,1.57-12,2.32-18,.48-3.79.86-7.59,1.4-11.37.25-1.74-.68-2.91-1.59-4.11Q6.28,45.6,0,37.39V37c1.08-.79,2.18-1.56,3.23-2.39,4.19-3.31,8.36-6.65,12.54-10l14-11.08C33.33,10.8,36.91,8,40.46,5.14,42.55,3.46,44.59,1.72,46.65,0ZM45,15.5,13.75,40.23c1.41,1.89,2.79,3.63,4,5.46a1.44,1.44,0,0,0,2.13.54c1.75-.79,3.54-1.46,5.63-2.31L21.5,77.44h39v-33c1.79.66,3.48,1.32,5.2,1.88a1.77,1.77,0,0,0,1.48-.12c1.39-1.48,2.67-3.08,3.93-4.56ZM145.41,32c-.51-.62-.88-1.12-1.3-1.56-13.18-14-37.79-14.79-51.87-1.62C81,39.38,80.81,55.11,90.81,65.72c12.27,13,34.08,14.22,48.13,4.3,2.16-1.53,4.07-3.42,6.26-5.28l-4.59-4a4.15,4.15,0,0,0-.44.27c-.13.11-.25.24-.36.36-7.37,7.74-16.26,9.87-26.28,6.58-11-3.6-17.27-14.66-14.52-25.23,2.19-8.43,7.84-13.68,16.08-16,8.67-2.42,16.5-.49,23.24,5.53,1,.93,1.93,2,3,3.12ZM349.71,42.94c1.42,0,2.84,0,4.25,0a1.28,1.28,0,0,0,.92-.56,5,5,0,0,0-3.6-7.34,58.2,58.2,0,0,0-8.37-.29c-6.15.13-8.77,2.44-9.91,8.48-.91,4.83.66,6.9,5.54,7.23,2.17.15,4.34.21,6.5.38,2.38.19,3,1.07,2.58,3.37-.63,3.24-1.42,4-4.75,4.29a18.63,18.63,0,0,1-3.25.07c-4.25-.36-4.25-.38-4-4.66-1.43,0-2.84,0-4.26,0a1.27,1.27,0,0,0-.93.52c-1.86,3.49,0,7.66,3.89,8.09a64.83,64.83,0,0,0,11.1,0c3.66-.24,5.86-2.52,6.86-6,.25-.88.5-1.76.67-2.65,1-5.25-.19-6.78-5.48-7.2-2.45-.2-4.89-.42-7.34-.65-1.58-.15-2.14-1-1.94-2.59.42-3.19,1.43-4.19,4.61-4.37,1-.06,2.06-.09,3.08-.08C349.69,39,349.82,39.14,349.71,42.94ZM284.29,62.64c1.37,0,2.46-.08,3.53,0,1.36.14,1.85-.36,2.12-1.73,1-5.27,2.2-10.5,3.32-15.75.71-3.33,1.41-6.67,2.16-10.26-1.46,0-2.7,0-3.94,0a1.33,1.33,0,0,0-1.62,1.28c-.51,2.75-1.19,5.47-1.7,8.22-.24,1.33-.71,1.94-2.21,1.87-2.74-.14-5.49,0-8.23,0h-3l2.31-11.18H271.8L266,62.62a29.77,29.77,0,0,1,3.55,0c1.4.18,1.89-.4,2.13-1.71.63-3.36,1.4-6.69,2.12-10.08h12.94Zm25-27.7c-1.62,0-3-.07-4.44,0a1.56,1.56,0,0,0-1,1c-1.46,6.75-2.93,13.5-4.23,20.28-.65,3.41.86,5.69,4.35,6.1a58.72,58.72,0,0,0,10.75.18c4.55-.31,7.21-3,8.12-7.5.66-3.19,1.35-6.37,2-9.55l2.25-10.59a30.33,30.33,0,0,1-3.46,0c-1.44-.18-2,.39-2.24,1.78-1.19,6-2.5,12-3.75,17.93-.36,1.7-1.18,3.16-3,3.32a45.4,45.4,0,0,1-7.65.06c-1.76-.14-2.28-1.17-1.95-2.92.43-2.24.92-4.47,1.38-6.71C307.42,44,308.35,39.57,309.32,34.94ZM200.14,48.29c.81-1.41,1.94-2.62,2.18-4a17.39,17.39,0,0,0-.14-5.76A4.11,4.11,0,0,0,197.92,35c-5.08-.11-10.16,0-15.24,0-.14,0-.29.15-.52.28,0,8.71,0,17.44,0,26.17,0,1.07.56,1.19,1.4,1.19,4.63,0,9.25,0,13.88,0a5.53,5.53,0,0,0,4.75-2.3C204.75,56.62,203.51,50.33,200.14,48.29Zm36.21-13.22c0,.78,0,1.39,0,2q0,11.65,0,23.3c0,2.49.42,2.76,3.09,1.9,0-3.09,0-6.23,0-9.36,0-.49.58-1.37.9-1.38,3.48-.06,7-.11,10.44.1,2.28.14,3.26,1.4,3.4,3.75.1,1.65.09,3.31.11,5,0,2.51.21,2.66,3,2,0-2-.07-4,0-6.07.11-2.79-.29-5.22-4.13-6.06,3.49-.88,4.48-2.93,4.46-5.67,0-1.36,0-2.74-.1-4.09-.32-3.14-2.09-5.2-5.24-5.34C247.12,34.9,241.87,35.06,236.35,35.06ZM211,34.93a4.5,4.5,0,0,0-.22.86c0,8.52,0,17,0,25.55,0,1.29.71,1.31,1.65,1.31,4.74,0,9.49,0,14.23,0,2.21,0,2.41-.29,1.67-2.67h-2.17c-3.6,0-7.2,0-10.8,0-.47,0-1.34-.5-1.34-.78-.1-3.11-.06-6.23-.06-9.54H228V47H214.08V37.59c4.49,0,8.83,0,13.17,0,1,0,1.43-.3,1.44-1.36s-.49-1.34-1.46-1.33c-4.69,0-9.37,0-14.06,0Zm-34.94.24c-2.29-.58-3.84-.31-4.91,1.82a72.49,72.49,0,0,1-3.87,6.27c-.93,1.46-1.89,2.9-3,4.57-2.43-3.83-4.68-7.39-6.94-10.95-1.45-2.28-1.55-2.31-4.6-1.69.32.57.6,1.12.92,1.63,2.67,4.26,5.4,8.48,8,12.78a6.85,6.85,0,0,1,.93,3.16c.12,3.23,0,6.47,0,9.78h3.11c0-2.08.16-4.08,0-6a13.52,13.52,0,0,1,2.85-9.86C171.25,43,173.51,39.12,176.06,35.17Z"/><path class="cls-1" d="M45,15.5,71.08,41.62c-1.26,1.48-2.53,3.07-3.93,4.56a1.77,1.77,0,0,1-1.48.12c-1.72-.56-3.41-1.22-5.2-1.88v33h-39l4.06-33.51c-2.09.85-3.89,1.52-5.63,2.31a1.44,1.44,0,0,1-2.13-.54c-1.25-1.83-2.63-3.57-4-5.46Z"/><path class="cls-1" d="M145.41,32l-4.14,3.37c-1-1.09-1.91-2.19-3-3.12-6.74-6-14.57-8-23.24-5.53-8.24,2.3-13.89,7.55-16.08,16C96.25,53.3,102.54,64.35,113.52,68c10,3.29,18.91,1.16,26.28-6.58.12-.12.23-.25.36-.36a4.15,4.15,0,0,1,.44-.27l4.59,4c-2.19,1.86-4.09,3.75-6.26,5.28-14,9.92-35.86,8.72-48.13-4.3-10-10.61-9.84-26.34,1.43-36.88,14.08-13.17,38.69-12.4,51.87,1.62C144.53,30.9,144.9,31.4,145.41,32Z"/><path class="cls-1" d="M349.71,42.94c.1-3.79,0-3.92-3.8-4-1,0-2.06,0-3.08.08-3.18.18-4.19,1.17-4.61,4.37-.2,1.54.36,2.44,1.94,2.59,2.45.23,4.89.45,7.34.65,5.29.43,6.47,2,5.48,7.2-.17.89-.42,1.78-.67,2.65-1,3.47-3.2,5.76-6.86,6a64.83,64.83,0,0,1-11.1,0c-3.93-.42-5.75-4.59-3.89-8.09a1.27,1.27,0,0,1,.93-.52c1.42-.06,2.83,0,4.26,0-.27,4.28-.27,4.31,4,4.66a18.63,18.63,0,0,0,3.25-.07c3.33-.31,4.12-1,4.75-4.29.45-2.3-.19-3.18-2.58-3.37-2.16-.17-4.33-.24-6.5-.38-4.88-.33-6.46-2.39-5.54-7.23,1.14-6,3.76-8.35,9.91-8.48a58.2,58.2,0,0,1,8.37.29,5,5,0,0,1,3.6,7.34,1.28,1.28,0,0,1-.92.56C352.55,43,351.13,42.94,349.71,42.94Z"/><path class="cls-1" d="M284.29,62.64l2.43-11.78H273.78c-.72,3.39-1.49,6.73-2.12,10.08-.25,1.3-.73,1.89-2.13,1.71a29.77,29.77,0,0,0-3.55,0l5.83-27.56h5.28l-2.31,11.18h3c2.74,0,5.49-.1,8.23,0,1.5.08,2-.54,2.21-1.87.5-2.75,1.18-5.47,1.7-8.22a1.33,1.33,0,0,1,1.62-1.28c1.24.06,2.49,0,3.94,0-.76,3.59-1.45,6.92-2.16,10.26-1.12,5.25-2.3,10.48-3.32,15.75-.26,1.36-.76,1.86-2.12,1.73C286.75,62.56,285.67,62.64,284.29,62.64Z"/><path class="cls-1" d="M309.32,34.94c-1,4.63-1.9,9-2.83,13.43-.47,2.23-1,4.47-1.38,6.71-.34,1.75.18,2.78,1.95,2.92a45.4,45.4,0,0,0,7.65-.06c1.8-.16,2.63-1.62,3-3.32,1.25-6,2.57-11.94,3.75-17.93.28-1.39.8-2,2.24-1.78a30.33,30.33,0,0,0,3.46,0L324.9,45.52c-.68,3.18-1.37,6.36-2,9.55-.92,4.45-3.58,7.18-8.12,7.5A58.72,58.72,0,0,1,304,62.39c-3.48-.4-5-2.69-4.35-6.1,1.3-6.78,2.77-13.53,4.23-20.28a1.56,1.56,0,0,1,1-1C306.29,34.87,307.71,34.94,309.32,34.94Z"/><path class="cls-1" d="M200.14,48.29c3.36,2,4.61,8.33,2,12a5.53,5.53,0,0,1-4.75,2.3c-4.63.06-9.25,0-13.88,0-.84,0-1.4-.12-1.4-1.19,0-8.73,0-17.46,0-26.17.23-.13.38-.28.52-.28,5.08,0,10.16-.08,15.24,0a4.11,4.11,0,0,1,4.26,3.52,17.39,17.39,0,0,1,.14,5.76C202.08,45.67,201,46.87,200.14,48.29ZM185.27,59.73a2.38,2.38,0,0,0,.52.2c3,0,6,0,9.06,0,4.58,0,5.8-1.33,5.47-5.89,0-.34-.07-.68-.13-1-.39-2.29-1.47-3.26-3.81-3.31-2.11,0-4.22,0-6.33,0h-4.78Zm0-12.73c2.32,0,4.43,0,6.53,0,1.65,0,3.3-.07,4.94-.25A2.79,2.79,0,0,0,199.29,44c.15-2,.81-4.15-1.11-5.73a2.17,2.17,0,0,0-1.26-.48c-3.86,0-7.71,0-11.64,0Z"/><path class="cls-1" d="M236.35,35.06c5.52,0,10.77-.16,16,.06,3.15.14,4.92,2.2,5.24,5.34.14,1.35.09,2.73.1,4.09,0,2.73-1,4.79-4.46,5.67,3.84.83,4.24,3.27,4.13,6.06-.08,2,0,4.08,0,6.07-2.8.65-3,.51-3-2,0-1.65,0-3.31-.11-5-.14-2.35-1.12-3.62-3.4-3.75-3.47-.21-7-.16-10.44-.1-.32,0-.89.89-.9,1.38-.08,3.13,0,6.27,0,9.36-2.67.86-3.08.59-3.09-1.9q0-11.65,0-23.3C236.35,36.46,236.35,35.84,236.35,35.06Zm3.22,2.73v10.9c3.79,0,7.43.12,11.07,0,2.69-.12,3.75-1.34,3.93-4a36,36,0,0,0,0-3.93,2.71,2.71,0,0,0-2.63-2.87C247.85,37.7,243.76,37.79,239.57,37.79Z"/><path class="cls-1" d="M211,34.93h2.18c4.69,0,9.37,0,14.06,0,1,0,1.47.23,1.46,1.33s-.44,1.37-1.44,1.36c-4.34,0-8.68,0-13.17,0V47H228v2.57H213.94c0,3.31,0,6.43.06,9.54,0,.29.87.77,1.34.78,3.6.07,7.2,0,10.8,0h2.17c.73,2.38.54,2.67-1.67,2.67-4.74,0-9.49,0-14.23,0-.94,0-1.66,0-1.65-1.31,0-8.52,0-17,0-25.55A4.5,4.5,0,0,1,211,34.93Z"/><path class="cls-1" d="M176.06,35.17c-2.55,3.95-4.81,7.86-7.49,11.46a13.52,13.52,0,0,0-2.85,9.86c.19,2,0,4,0,6h-3.11c0-3.3.08-6.54,0-9.78a6.85,6.85,0,0,0-.93-3.16c-2.6-4.3-5.33-8.53-8-12.78-.32-.51-.6-1.06-.92-1.63,3.05-.62,3.15-.59,4.6,1.69,2.26,3.56,4.51,7.12,6.94,10.95,1.09-1.66,2-3.1,3-4.57A72.49,72.49,0,0,0,171.15,37C172.21,34.86,173.76,34.59,176.06,35.17Z"/><path d="M185.27,59.73v-10H190c2.11,0,4.22,0,6.33,0,2.34,0,3.42,1,3.81,3.31.06.34.11.68.13,1,.33,4.56-.89,5.88-5.47,5.89-3,0-6,0-9.06,0A2.38,2.38,0,0,1,185.27,59.73Z"/><path d="M185.28,47V37.72c3.93,0,7.78,0,11.64,0a2.17,2.17,0,0,1,1.26.48c1.93,1.58,1.26,3.75,1.11,5.73a2.79,2.79,0,0,1-2.55,2.79c-1.63.18-3.29.22-4.94.25C189.71,47,187.6,47,185.28,47Z"/><path d="M239.57,37.79c4.19,0,8.28-.1,12.36,0a2.71,2.71,0,0,1,2.63,2.87,36,36,0,0,1,0,3.93c-.18,2.68-1.24,3.9-3.93,4-3.63.16-7.28,0-11.07,0Z"/></g><polygon class="cls-2" points="36.94 51.76 49.75 52.9 47.23 77.44 34.2 77.44 36.94 51.76"/></g></g></svg>