<svg xmlns="http://www.w3.org/2000/svg" viewBox="0 0 248.54 166.43"><title>Asset 5</title><g id="Layer_2" data-name="Layer 2"><g id="Layer_1-2" data-name="Layer 1"><path d="M248.54,142.34c-.52-.05-1-.14-1.57-.14H192c-.52,0-1,.05-1.94.1,3,7.84,4.69,15.74,4.09,24.13H54.4a54.36,54.36,0,0,1,4.09-24.08c-.82-.06-1.38-.15-2-.15H1.37a12.76,12.76,0,0,0-1.37.14q0-3.77,0-7.54c.38-1.59.75-3.19,1.14-4.78,3.06-12.41,10.64-21.35,21.5-27.66,2.88-1.68,6-3,8.82-4.32-2-3.79-4-7.62-6.1-11.45a3.13,3.13,0,0,0-.8-.86,15.93,15.93,0,0,1-3.71-19.36,5.15,5.15,0,0,0,.4-2.27c.15-4.42-.07-8.88.46-13.25.68-5.68,4.22-9.58,9.53-11.36,4.23-1.42,8.71-2.08,13.09-3,3-.65,6-1.08,8.92-1.87a9.31,9.31,0,0,0,3.53-2.07c2.91-2.57,5.7-5.28,8.8-8.19.37,3.55.72,6.75,1,10,.09.86.18,1.71.23,2.57a5.67,5.67,0,0,0,2.77,4.82A16.56,16.56,0,0,1,76.56,53c.57,3.64.54,7.37.88,11a16.53,16.53,0,0,0,.83,3.15c.13.44.39.84.55,1.27,1.92,5.29-.46,13.83-4.81,17.39a4.33,4.33,0,0,0-1.11,1.34C72,89.06,71.2,91,70.22,92.76S68.06,96.22,66.93,98a80.65,80.65,0,0,1,8.64,4.27c3.59,2.31,6.86,5.1,10.32,7.61a2.55,2.55,0,0,0,2,.53c4.42-1.87,8.79-3.88,13.38-5.94-.6-.85-1.34-1.75-1.91-2.75-2.71-4.67-5.36-9.37-8.07-14a7.38,7.38,0,0,0-1.75-2.49,15.43,15.43,0,0,1-6.3-8.64c-1.33-4.67-2-9.45-.7-14.28a5.54,5.54,0,0,1,.95-2.36C85.16,58.19,85,56.14,85,54c-.09-4-.1-7.94-.08-11.91.07-13.64,6.2-20.18,18.38-23.54,5-1.38,10.26-1.87,15.38-2.88,4.4-.87,8.84-1.67,13.14-2.93,4-1.18,6.26-4.95,9.33-7.51C143,3.69,144.68,1.91,146.69,0c.18.89.36,1.48.43,2.09.49,4.87,1,9.74,1.4,14.61.19,2.52.92,4.27,3.35,5.72,5.28,3.14,8.22,8.22,10,14,2,6.37,1.85,12.92,1.77,19.47a8.33,8.33,0,0,0,1.15,3.82,17,17,0,0,1,1.78,7c0,4.63-.58,9.32-3,13.38-1.23,2-3.15,3.66-4.75,5.47a6.89,6.89,0,0,0-1.45,1.79,58.3,58.3,0,0,1-9.5,16.38,10.76,10.76,0,0,0-.63,1c1.62.64,3.14,1.19,4.63,1.83,2.78,1.2,5.53,2.51,8.33,3.66.61.25,1.71.35,2.06,0a52.32,52.32,0,0,1,19.62-12.09c-.44-.71-.82-1.29-1.17-1.88-1.45-2.52-2.83-5.08-4.35-7.55A16.61,16.61,0,0,0,173.54,85c-3.4-3.07-4.12-7.12-4.39-11.33a11.44,11.44,0,0,1,1.7-7.4,4,4,0,0,0,.37-2.08c0-3.11-.14-6.22,0-9.33.28-9,4.18-14.14,12.92-16.46a123.86,123.86,0,0,1,14.59-2.73A16.87,16.87,0,0,0,209.46,30c1.74-2,3.82-3.62,6-5.68.17,1.22.34,2.15.43,3.08.39,3.75.71,7.51,1.19,11.24a3.23,3.23,0,0,0,1.26,2.06c5.57,3.6,8,9,8.72,15.29.2,1.64.22,3.3.27,4.95.07,2.54,0,5,1.32,7.43,2,3.6.43,14-4.58,17.39a3.35,3.35,0,0,0-1.1,1.11c-1.95,3.73-3.85,7.48-5.76,11.22,2.57,1.25,5.43,2.45,8.1,4,12.55,7.14,20.6,17.52,22.8,32a6.33,6.33,0,0,0,.37,1.09ZM141.61,13.57a2.69,2.69,0,0,0-.66.4c-3.59,4.06-8.47,5.47-13.51,6.43-7.39,1.42-14.88,2.4-22.21,4.09-9.25,2.13-13.85,6.73-14,16-.12,6.14.11,12.29.12,18.44,0,.77-.21,1.9-.72,2.23a5.46,5.46,0,0,0-2.49,5.3,35,35,0,0,0,1.51,9.11C90.25,77.4,92,79,93.7,80.16A5.37,5.37,0,0,1,96,82.78c3,7.71,6.74,15,13,20.58,9.08,8.18,19.73,8.59,29,1.2,5.69-4.56,9.56-10.51,12.51-17.1,1.28-2.86,1.72-6.26,5.33-7.54a3.88,3.88,0,0,0,1.59-1.72,21.53,21.53,0,0,0,2.88-13.11,4.34,4.34,0,0,0-1.65-2.72,3,3,0,0,1-1.24-2.66c-.13-5.88,0-11.79-.62-17.61-.76-7.07-4.1-12.78-10.87-15.9a3.67,3.67,0,0,1-2.31-2.92C143,20.07,142.28,16.86,141.61,13.57Zm46.08,146.7c.2-5.78-2.63-15.32-6.29-21.57-6.3-10.76-15.27-18.61-26.32-24.21-1.1-.56-1.65-.45-2.41.59a33.14,33.14,0,0,1-20.36,13.52c-14.72,3-27-1.4-36.37-13.33-1-1.27-1.69-1.36-2.89-.59-3.76,2.44-7.72,4.61-11.27,7.31a53,53,0,0,0-19.85,29.53c-.72,2.76-1,5.65-1.46,8.58H88c0-1,0-1.73,0-2.52,0-3.44,0-6.88.05-10.32a3,3,0,1,1,6.08,0c.1,2.78,0,5.56,0,8.33,0,1.49,0,3,0,4.42a5.35,5.35,0,0,0,.88.21q28.88,0,57.76,0c1.28,0,1.55-.56,1.53-1.69-.05-3.17,0-6.35,0-9.53,0-.6,0-1.19,0-1.79.15-1.94,1.21-3,2.93-3.1a2.88,2.88,0,0,1,3.15,3.07c.1,3.7.1,7.41,0,11.11,0,1.48.45,1.95,1.94,1.93,5.89-.08,11.78,0,17.66,0ZM210.64,37.75c-4,2.86-8.51,3.63-13,4.43-3.38.61-6.78,1.13-10.16,1.73-7,1.25-10.09,4.92-10.11,11.95,0,3.24,0,6.48.08,9.72,0,1.7.29,3.39-1.5,4.59a2.86,2.86,0,0,0-.68,2.17,26.43,26.43,0,0,0,.59,4.7c.41,1.87,1.29,3.43,3.36,4a2.38,2.38,0,0,1,1.2,1.38,45.69,45.69,0,0,0,7.35,12.81c5.3,6.6,13.79,7.65,20.35,2.35,4.63-3.74,7.38-8.71,9.47-14.14a3.8,3.8,0,0,1,1.1-1.76c3.05-2.1,5.12-6.66,4.44-10.2a2,2,0,0,0-.75-1.3c-1.23-.57-1.19-1.56-1.25-2.65-.22-4.54-.3-9.11-.84-13.61a9.81,9.81,0,0,0-5.54-8,5.89,5.89,0,0,1-3.61-5C211,40,210.85,39.06,210.64,37.75Zm-150,.45A49.16,49.16,0,0,1,54,40.69c-5.47,1.22-11,2.2-16.52,3.21-6.94,1.26-10.11,4.94-10.14,11.95q0,5.06.11,10.12c0,1.54.16,3-1.37,4a2.76,2.76,0,0,0-.77,2.13,41.17,41.17,0,0,0,.79,5.66A4.14,4.14,0,0,0,29.05,81a2.62,2.62,0,0,1,1.39,1.43,42.24,42.24,0,0,0,7.46,13c5.27,6.3,13.16,7.46,19.59,2.72a29.51,29.51,0,0,0,7.59-9c1.83-3.05,1.94-7.22,5.87-9,.58-.25.93-1.28,1.14-2a32.87,32.87,0,0,0,1-4.64c.19-1.42.37-2.88-1.35-3.77-.42-.22-.56-1.27-.58-1.94-.09-3.24.09-6.5-.18-9.72-.41-4.93-1.51-9.72-6.44-12.19a6.15,6.15,0,0,1-3.5-5.07C60.94,39.89,60.77,39,60.63,38.21ZM219.9,106.13c-5.4,6.7-12.13,10.49-20.74,10.47s-15.32-3.84-20.58-10.42a37.19,37.19,0,0,0-11.49,8.12c2.08,1.65,4.06,3.07,5.88,4.68a64.57,64.57,0,0,1,13,15.36,3.07,3.07,0,0,0,2.08,1.44c9.85.09,19.7.05,29.55.08,1.12,0,1.52-.41,1.48-1.52-.06-2,0-4,0-5.95,0-2.33,1.16-3.62,3-3.6s3,1.29,3,3.64,0,4.74,0,7.21h16.92C240,121.7,232.07,112.52,219.9,106.13ZM6.62,135.84c5.23,0,10.31,0,15.39,0,1.12,0,1.27-.63,1.26-1.54,0-2.12-.07-4.24,0-6.35s1.31-3.18,3.09-3.17,2.89,1.2,3,3.27c.08,1.72,0,3.44,0,5.16,0,2.62,0,2.63,2.54,2.63,9.07,0,18.13-.05,27.19,0a3.8,3.8,0,0,0,3.78-2.14,58.36,58.36,0,0,1,14.68-16.47c1.23-.95,2.4-2,4.07-3.33l-11.58-8.1c-5.55,7-12.32,10.78-20.89,10.77s-15.45-3.83-20.67-10.41C15.19,112.58,7,125.1,6.62,135.84Zm94.19-24.24c6.84,8.45,15.43,12.45,26,11.56A28,28,0,0,0,147.6,111.5a28.29,28.29,0,0,1-3.11-1c-1.89-.88-3.29-.38-5,.76-9.58,6.21-19.55,6.73-29.26.58-3-1.87-5.3-2-8.15-.71C101.73,111.26,101.41,111.36,100.81,111.6Zm-65.49-8.48-.18.77c7.9,9.59,22.78,7.57,27.9-.49a5.85,5.85,0,0,0-2.88.63,19.43,19.43,0,0,1-21.8-.1A9.88,9.88,0,0,0,35.31,103.12Zm177.77.14a8,8,0,0,0-2.63.58c-7.54,4.78-15,4.69-22.45-.14-.71-.46-1.85-.23-2.79-.32C192.77,113,207,112,213.08,103.26Z"/></g></g></svg>