<svg xmlns="http://www.w3.org/2000/svg" viewBox="0 0 240.25 159.07"><title>Asset 2</title><g id="Layer_2" data-name="Layer 2"><g id="Layer_1-2" data-name="Layer 1"><path d="M240.25,60.67q0-22.95,0-45.9c0-7.36-4.43-13.94-9.87-14.64l-.22,0a8,8,0,0,0-1.57-.1Q120.24,6.18,11.9,12.38c-4.24.24-7.59,2.55-10,6.81A13.31,13.31,0,0,0,.18,25.06h0L0,25.43v84.44l.13.89c.08.44.15.89.24,1.33,1.09,5.58,4.14,9.19,9.06,10.73a9.31,9.31,0,0,0,2.43.41l100.54,3.35q0,15.8,0,31.61l15.45.88v-32l100.69,3.34a9.32,9.32,0,0,0,7.3-3.31c3-3.2,4.41-7.35,4.41-12.69Q240.24,87.56,240.25,60.67Zm-7.14,54.24c0,3.88-2.33,7.09-5.09,7C159.53,120,86.47,118,12.42,116c-2.79-.08-5-3.14-5.12-5.73,0-.51,0-1-.05-1.54v-.17c0-1.33-.1-2.71-.1-4.07q0-38.82,0-77.64A8.14,8.14,0,0,1,9,21.23a4.33,4.33,0,0,1,3.12-1.63L101.5,15l42.26-2.16c27.72-1.42,56.37-2.88,84.55-4.36,2-.1,4.21,2.42,4.66,5.3a15.77,15.77,0,0,1,.14,2.38q0,3.13,0,6.27C233.12,52.76,233.13,84.1,233.11,114.92Z"/><path d="M88.23,81.37c-.38-1-.77-2-1.16-3L87,78.15c-.48-1.22-1-2.43-1.42-3.65L80.84,62.09,80,59.93l-.84-2.21-.2-.53c-.47-1.25-.95-2.5-1.43-3.75s-1.07-2.72-1.63-4.1l-2.4-6-2.14,4.33a7.59,7.59,0,0,0-.33.71l-.7,1.78-.12.3q-.5,1.3-1,2.59-2.48,6.22-5,12.39-2.79,6.89-5.6,13.72a13.8,13.8,0,0,0-1.2,6.06c.09,1.83.07,3.73,0,5.57q0,.77,0,1.55L49,92.28c0-.88,0-1.74,0-2.6a2.82,2.82,0,0,0-.75-2.07c-1.48-1.48-3.07-3-5-4.89q-2.67-2.56-5.36-5.08l-1.1-1c-1.1-1-2.24-2.1-3.39-3.12a2.75,2.75,0,0,0-3.5.11C27.56,75.8,25.28,78,23,80.26l-3.53,3.41-.4.39L15.64,87.3A3.48,3.48,0,0,0,14.51,90c0,4,0,8.1,0,12.15q0,3.18,0,6.36l74,1.57.13-2c0-.17,0-.33,0-.48v-2.15q0-11.1,0-22.2A5,5,0,0,0,88.23,81.37Z"/><path d="M224.72,76.42a4.81,4.81,0,0,0-.94-2.78h0q-8-10.39-16-20.52l-2.25-2.84-.37-.44-1.51-1.79-1.56,1.56a3,3,0,0,0-.32.35l-2,2.64q-8,10.39-16,20.58a4.57,4.57,0,0,0-.83,2.68q0,7.09.09,14.18v1.5q0,2.15,0,4.3a3.05,3.05,0,0,0-.71-.64h0c-1.24-.76-2.49-1.49-3.74-2.22l-.09-.05-2.82-1.66-3-1.81c-1.41-.86-2.87-1.74-4.32-2.58l-.21-.13a3.17,3.17,0,0,0-3.65-.29q-3.16,1.94-6.32,3.84l-.4.24-7.7,4.62a3.45,3.45,0,0,0-1.48,2.66c0,.52,0,1,0,1.56l-2.81,0V96.9q0-6.7,0-13.4a5.31,5.31,0,0,0-.52-2.24c-1.77-3.6-3.52-7.09-5.2-10.38a3,3,0,0,0-1.47-1.33l-.1-.05a2.28,2.28,0,0,0-1.38-.23l-4.59,0L100,69.64a3,3,0,0,0-2.85,1.65q-1.72,3.33-3.47,6.61l-1.44,2.71a7,7,0,0,0-.82,3.4c0,5.3,0,10.69,0,15.91q0,5,0,10l91.68,1.93h0l41.51.88.08-2.39c0-.22,0-.41,0-.61q0-2.11,0-4.23Q224.75,91,224.72,76.42Z"/></g></g></svg>